<svg xmlns="http://www.w3.org/2000/svg" viewBox="0 0 512 512"><!--! Font Awesome Pro 6.4.2 by @fontawesome - https://fontawesome.com License - https://fontawesome.com/license (Commercial License) Copyright 2023 Fonticons, Inc. --><path d="M200 0H312l17.2 78.4c15.8 6.5 30.6 15.1 44 25.4l76.5-24.4 56 97-59.4 54.1c1.1 8.3 1.7 16.8 1.7 25.4s-.6 17.1-1.7 25.4l59.4 54.1-56 97-76.5-24.4c-13.4 10.3-28.2 18.9-44 25.4L312 512H200l-17.2-78.4c-15.8-6.5-30.6-15.1-44-25.4L62.3 432.5l-56-97 59.4-54.1C64.6 273.1 64 264.6 64 256s.6-17.1 1.7-25.4L6.3 176.5l56-97 76.5 24.4c13.4-10.3 28.2-18.9 44-25.4L200 0zm56 336a80 80 0 1 0 0-160 80 80 0 1 0 0 160z"/></svg>