<svg width="48" height="48" viewBox="0 0 48 48" fill="none" xmlns="http://www.w3.org/2000/svg">
<g id="github-fill">
<path id="Vector" d="M24 4C12.95 4 4 12.95 4 24C3.99773 28.1986 5.31763 32.2912 7.77243 35.6974C10.2272 39.1035 13.6923 41.6501 17.676 42.976C18.676 43.15 19.05 42.55 19.05 42.024C19.05 41.55 19.024 39.976 19.024 38.3C14 39.226 12.7 37.076 12.3 35.95C12.074 35.374 11.1 33.6 10.25 33.124C9.55 32.75 8.55 31.824 10.224 31.8C11.8 31.774 12.924 33.25 13.3 33.85C15.1 36.874 17.976 36.024 19.124 35.5C19.3 34.2 19.824 33.326 20.4 32.826C15.95 32.326 11.3 30.6 11.3 22.95C11.3 20.774 12.074 18.976 13.35 17.574C13.15 17.074 12.45 15.024 13.55 12.274C13.55 12.274 15.224 11.75 19.05 14.326C20.6781 13.8741 22.3603 13.6467 24.05 13.65C25.75 13.65 27.45 13.874 29.05 14.324C32.874 11.724 34.55 12.276 34.55 12.276C35.65 15.026 34.95 17.076 34.75 17.576C36.024 18.976 36.8 20.75 36.8 22.95C36.8 30.626 32.126 32.326 27.676 32.826C28.4 33.45 29.026 34.65 29.026 36.526C29.026 39.2 29 41.35 29 42.026C29 42.55 29.376 43.174 30.376 42.974C34.3461 41.6336 37.7958 39.082 40.2398 35.6783C42.6838 32.2746 43.9989 28.1902 44 24C44 12.95 35.05 4 24 4Z" fill="#58C142"/>
</g>
</svg>
