<svg xmlns="http://www.w3.org/2000/svg" viewBox="0 0 512 512"><!--! Font Awesome Pro 6.4.2 by @fontawesome - https://fontawesome.com License - https://fontawesome.com/license (Commercial License) Copyright 2023 Fonticons, Inc. --><path d="M142.9 142.9c-17.5 17.5-30.1 38-37.8 59.8L44.8 181.4C55.6 150.7 73.2 122 97.6 97.6c87.5-87.5 229.3-87.5 316.8 0l0 0L472 40l24 24V224H336l-24-24 57.1-57.1 0 0c-62.5-62.5-163.8-62.5-226.3 0zm0 226.3c62.5 62.5 163.8 62.5 226.3 0c17.5-17.5 30.1-38 37.8-59.8l60.4 21.3c-10.8 30.6-28.4 59.3-52.9 83.7c-87.5 87.5-229.3 87.5-316.7 0l0 0L40 472 16 448V288H176l24 24-57.1 57.1z"/></svg>