<?xml version="1.0" encoding="utf-8"?>
<!-- Generator: Adobe Illustrator 27.8.1, SVG Export Plug-In . SVG Version: 6.00 Build 0)  -->
<svg version="1.1" id="Layer_1" xmlns="http://www.w3.org/2000/svg" xmlns:xlink="http://www.w3.org/1999/xlink" x="0px" y="0px"
	 viewBox="0 0 1000 175" style="enable-background:new 0 0 1000 175;" xml:space="preserve">
<style type="text/css">
	.st0{fill:url(#SVGID_1_);}
	.st1{fill:url(#SVGID_00000097467401116752621440000013265923851559160252_);}
	.st2{fill:#FFFFFF;}
	.st3{fill:#58C142;}
	.st4{fill:url(#SVGID_00000026844058065691411450000001084298207851076753_);}
	.st5{fill:url(#SVGID_00000140695609015829564530000017877493759276215708_);}
	.st6{fill:url(#SVGID_00000172429467579424709090000016892278147863045285_);}
	.st7{fill:url(#SVGID_00000111161844774090145740000012271107721736914070_);}
	.st8{fill:url(#SVGID_00000159463458951391818050000007934417898368699555_);}
	.st9{fill:url(#SVGID_00000114048161574266679140000001630328408055608234_);}
	.st10{fill:url(#SVGID_00000181790832707237646570000012870231436607310721_);}
	.st11{fill:url(#SVGID_00000182504551275047381220000018143622223532349093_);}
	.st12{fill:url(#SVGID_00000182503296231706301150000015159284117431565225_);}
	.st13{fill:url(#SVGID_00000157991892590648824540000004483708798912232327_);}
</style>
<g>
	<path d="M339.7,20.6h26.5l30.9,100.8l33.5-100.8h22l33.5,100.8l31.2-100.8h26.5L497.9,156h-23.8L441.9,55.4L409.1,156h-23.8
		L339.7,20.6z"/>
	<path d="M693.8,20.6V156h-25.9V133c-10.5,16.2-27.2,26.2-47.9,26.2c-35.9,0-62.3-29.3-62.3-71c0-41.4,26.5-70.7,62.3-70.7
		c20.7,0,37.5,10,47.9,26.2v-23H693.8z M667.9,88.2c0-28.3-17.3-48.2-41.9-48.2c-24.6,0-42.2,19.9-42.2,48.2
		c0,28.3,17.6,48.5,42.2,48.5C650.6,136.6,667.9,116.5,667.9,88.2z"/>
	<path d="M713.8,20.6h27.8l42.2,105.3l41.4-105.3h28L796,156h-24.4L713.8,20.6z"/>
	<path d="M970.7,122.2l15.2,16c-11.8,12.8-35.6,21-54.7,21c-37.5,0-69.9-29.6-69.9-71.2c0-40.6,30.6-70.5,68.1-70.5
		c41.4,0,65.5,30.9,65.5,79.1H886.6c3.1,23.8,19.9,41.1,44,41.1C945.3,137.7,962.3,131.1,970.7,122.2z M886.9,77.5h82.8
		c-2.6-21.7-16.2-38.5-39.8-38.5C908.1,38.9,890.8,54.1,886.9,77.5z"/>
</g>
<g>
	<linearGradient id="SVGID_1_" gradientUnits="userSpaceOnUse" x1="5.2128" y1="58.9088" x2="240.4477" y2="58.9088">
		<stop  offset="0.1418" style="stop-color:#1F4D22"/>
		<stop  offset="0.8656" style="stop-color:#418D31"/>
	</linearGradient>
	<path class="st0" d="M83.6,80.8c-12.3,0-19.1,8-22.8,25.9l-55.6-8C12,40.1,34.8,11.7,79.9,11.7C113.3,11.7,146,37,162,37
		c12.4,0,19.1-8.6,22.8-25.9l55.6,8c-6.2,58.7-29.6,87.1-74.7,87.1C131.8,106.1,100.3,80.8,83.6,80.8z"/>
</g>
<g>
	
		<linearGradient id="SVGID_00000055697211621202625680000016003686276294146176_" gradientUnits="userSpaceOnUse" x1="20.9171" y1="116.0912" x2="256.1519" y2="116.0912">
		<stop  offset="0.2223" style="stop-color:#418D31"/>
		<stop  offset="0.7733" style="stop-color:#58C142"/>
	</linearGradient>
	<path style="fill:url(#SVGID_00000055697211621202625680000016003686276294146176_);" d="M99.3,138c-12.3,0-19.1,8-22.8,25.9
		l-55.6-8c6.8-58.6,29.6-87.1,74.7-87.1c33.3,0,66.1,25.3,82.1,25.3c12.4,0,19.1-8.6,22.8-25.9l55.6,8
		c-6.2,58.7-29.6,87.1-74.7,87.1C147.5,163.3,116,138,99.3,138z"/>
</g>
</svg>
