<?xml version="1.0" encoding="utf-8"?>
<!-- Generator: Adobe Illustrator 27.8.1, SVG Export Plug-In . SVG Version: 6.00 Build 0)  -->
<svg version="1.1" id="Layer_1" xmlns="http://www.w3.org/2000/svg" xmlns:xlink="http://www.w3.org/1999/xlink" x="0px" y="0px"
	 viewBox="0 0 600 400" style="enable-background:new 0 0 600 400;" xml:space="preserve">
<style type="text/css">
	.st0{fill:url(#SVGID_1_);}
	.st1{fill:url(#SVGID_00000112609801797065440120000009078644614516335013_);}
	.st2{fill:#FFFFFF;}
	.st3{fill:#58C142;}
	.st4{fill:url(#SVGID_00000140705471064485508570000011374545427215048096_);}
	.st5{fill:url(#SVGID_00000070096993167771140800000009230862614014512804_);}
	.st6{fill:url(#SVGID_00000018927797001490499930000007907141601259141028_);}
	.st7{fill:url(#SVGID_00000177467729764420216790000007105154932047940258_);}
	.st8{fill:url(#SVGID_00000094609616810712664470000012347852020703354001_);}
	.st9{fill:url(#SVGID_00000147904120639373224840000010231811793887454594_);}
	.st10{fill:url(#SVGID_00000124156599372995293460000015010576141345595828_);}
	.st11{fill:url(#SVGID_00000113335101732495131180000003771446430366466471_);}
	.st12{fill:url(#SVGID_00000123421819715807053460000011277887084625979316_);}
	.st13{fill:url(#SVGID_00000070797766435397124570000013813146128488798621_);}
</style>
<g>
	<g>
		<linearGradient id="SVGID_1_" gradientUnits="userSpaceOnUse" x1="7.3142" y1="133.3046" x2="556.0522" y2="133.3046">
			<stop  offset="0.1418" style="stop-color:#1F4D22"/>
			<stop  offset="0.8656" style="stop-color:#418D31"/>
		</linearGradient>
		<path class="st0" d="M190.2,184.4c-28.8,0-44.6,18.7-53.3,60.5L7.3,226.2C23.2,89.4,76.4,23.1,181.6,23.1
			c77.8,0,154.1,59.1,191.6,59.1c28.8,0,44.7-20.2,53.3-60.5l129.6,18.7c-14.4,136.8-69.1,203.1-174.3,203.1
			C302.6,243.5,229.1,184.4,190.2,184.4z"/>
	</g>
	<g>
		
			<linearGradient id="SVGID_00000085247734223146048360000005883855174484422067_" gradientUnits="userSpaceOnUse" x1="43.9478" y1="266.6954" x2="592.6859" y2="266.6954">
			<stop  offset="0.2223" style="stop-color:#418D31"/>
			<stop  offset="0.7733" style="stop-color:#58C142"/>
		</linearGradient>
		<path style="fill:url(#SVGID_00000085247734223146048360000005883855174484422067_);" d="M226.8,317.8
			c-28.8,0-44.6,18.7-53.3,60.5L43.9,359.6c15.8-136.8,69.1-203.1,174.3-203.1c77.8,0,154.1,59.1,191.6,59.1
			c28.8,0,44.7-20.2,53.3-60.5l129.6,18.7c-14.4,136.8-69.1,203.1-174.3,203.1C339.2,376.9,265.7,317.8,226.8,317.8z"/>
	</g>
</g>
</svg>
