<svg xmlns="http://www.w3.org/2000/svg" width="16" height="16" viewBox="0 0 16 16" fill="none">
  <path d="M7.31739 0.998047H8.68263C9.63507 0.998041 10.3956 0.998035 11.0099 1.04822C11.6399 1.0997 12.1818 1.20768 12.6795 1.46127C13.4791 1.86873 14.1293 2.51889 14.5368 3.31858C14.7904 3.81627 14.8984 4.35815 14.9498 4.98816C15 5.60243 15 6.36298 15 7.31543L15 8.68492C15 9.63736 15 10.3979 14.9499 11.0122C14.8984 11.6422 14.7904 12.1841 14.5368 12.6818C14.1293 13.4815 13.4792 14.1316 12.6795 14.5391C12.1818 14.7927 11.6399 14.9007 11.0099 14.9521C10.3956 15.0023 9.63509 15.0023 8.68265 15.0023H7.31737C6.36494 15.0023 5.60439 15.0023 4.99013 14.9521C4.36012 14.9007 3.81824 14.7927 3.32054 14.5391C2.52085 14.1316 1.87068 13.4815 1.46322 12.6818C1.20963 12.1841 1.10165 11.6422 1.05018 11.0122C0.999988 10.3979 0.999994 9.63738 1 8.68493V7.31543C0.999994 6.36299 0.999988 5.60244 1.05018 4.98818C1.10165 4.35817 1.20963 3.81628 1.46322 3.31859C1.87068 2.5189 2.52085 1.86873 3.32054 1.46127C3.81824 1.20768 4.36012 1.0997 4.99013 1.04822C5.6044 0.998035 6.36494 0.998041 7.31739 0.998047ZM5.11228 2.54324C4.57503 2.58714 4.25252 2.66989 4.00153 2.79778C3.48408 3.06143 3.06338 3.48213 2.79973 3.99957C2.67184 4.25057 2.58909 4.57308 2.54519 5.11033C2.50058 5.65633 2.5 6.35558 2.5 7.34805V8.65232C2.5 9.2122 2.50019 9.67876 2.50836 10.0771L3.78247 8.80294C4.48697 8.09838 5.63671 8.12335 6.30997 8.85781L7.11172 9.73245L9.57098 7.27319C10.4497 6.39451 11.8743 6.39451 12.753 7.27319L13.5 8.02024L13.5 7.34803C13.5 6.35556 13.4994 5.65632 13.4548 5.11032C13.4109 4.57307 13.3282 4.25056 13.2003 3.99957C12.9366 3.48212 12.5159 3.06143 11.9985 2.79778C11.7475 2.66989 11.425 2.58714 10.8877 2.54324C10.3417 2.49863 9.64248 2.49805 8.65002 2.49805H7.35C6.35753 2.49805 5.65829 2.49863 5.11228 2.54324ZM13.4905 10.132L11.6923 8.33385C11.3994 8.04096 10.9245 8.04096 10.6316 8.33385L7.98775 10.9777C7.48453 11.481 6.66331 11.4631 6.18243 10.9385L5.20424 9.8714C5.10806 9.76647 4.94381 9.76291 4.84317 9.86356L2.76923 11.9376C2.7791 11.9592 2.78926 11.9802 2.79973 12.0008C3.06338 12.5182 3.48408 12.9389 4.00153 13.2026C4.25252 13.3305 4.57503 13.4132 5.11228 13.4571C5.65829 13.5017 6.35754 13.5023 7.35 13.5023H8.65002C9.64249 13.5023 10.3417 13.5017 10.8877 13.4571C11.425 13.4132 11.7475 13.3305 11.9985 13.2026C12.516 12.9389 12.9366 12.5182 13.2003 12.0008C13.3282 11.7498 13.4109 11.4273 13.4548 10.89C13.4731 10.6663 13.484 10.4168 13.4905 10.132Z" fill="white"/>
  <path d="M6.50086 5.25744C6.50086 5.94911 5.94015 6.50981 5.24849 6.50981C4.55682 6.50981 3.99611 5.94911 3.99611 5.25744C3.99611 4.56577 4.55682 4.00507 5.24849 4.00507C5.94015 4.00507 6.50086 4.56577 6.50086 5.25744Z" fill="white"/>
</svg>