<svg viewBox="0 0 32 32" fill="none" xmlns="http://www.w3.org/2000/svg">
<rect width="32" height="32" rx="8" fill="url(#paint0_linear_629_37177)"/>
<path d="M15.3174 8.99805H16.6826C17.6351 8.99804 18.3956 8.99804 19.0099 9.04822C19.6399 9.0997 20.1818 9.20768 20.6795 9.46127C21.4791 9.86873 22.1293 10.5189 22.5368 11.3186C22.7904 11.8163 22.8984 12.3582 22.9498 12.9882C23 13.6024 23 14.363 23 15.3154L23 16.6849C23 17.6374 23 18.3979 22.9499 19.0122C22.8984 19.6422 22.7904 20.1841 22.5368 20.6818C22.1293 21.4815 21.4792 22.1316 20.6795 22.5391C20.1818 22.7927 19.6399 22.9007 19.0099 22.9521C18.3956 23.0023 17.6351 23.0023 16.6827 23.0023H15.3174C14.3649 23.0023 13.6044 23.0023 12.9901 22.9521C12.3601 22.9007 11.8182 22.7927 11.3205 22.5391C10.5209 22.1316 9.87068 21.4815 9.46322 20.6818C9.20963 20.1841 9.10165 19.6422 9.05018 19.0122C8.99999 18.3979 8.99999 17.6374 9 16.6849V15.3154C8.99999 14.363 8.99999 13.6024 9.05018 12.9882C9.10165 12.3582 9.20963 11.8163 9.46322 11.3186C9.87068 10.5189 10.5209 9.86873 11.3205 9.46127C11.8182 9.20768 12.3601 9.0997 12.9901 9.04822C13.6044 8.99804 14.3649 8.99804 15.3174 8.99805ZM13.1123 10.5432C12.575 10.5871 12.2525 10.6699 12.0015 10.7978C11.4841 11.0614 11.0634 11.4821 10.7997 11.9996C10.6718 12.2506 10.5891 12.5731 10.5452 13.1103C10.5006 13.6563 10.5 14.3556 10.5 15.348V16.6523C10.5 17.2122 10.5002 17.6788 10.5084 18.0771L11.7825 16.8029C12.487 16.0984 13.6367 16.1233 14.31 16.8578L15.1117 17.7325L17.571 15.2732C18.4497 14.3945 19.8743 14.3945 20.753 15.2732L21.5 16.0202L21.5 15.348C21.5 14.3556 21.4994 13.6563 21.4548 13.1103C21.4109 12.5731 21.3282 12.2506 21.2003 11.9996C20.9366 11.4821 20.5159 11.0614 19.9985 10.7978C19.7475 10.6699 19.425 10.5871 18.8877 10.5432C18.3417 10.4986 17.6425 10.498 16.65 10.498H15.35C14.3575 10.498 13.6583 10.4986 13.1123 10.5432ZM21.4905 18.132L19.6923 16.3339C19.3994 16.041 18.9245 16.041 18.6316 16.3339L15.9878 18.9777C15.4845 19.481 14.6633 19.4631 14.1824 18.9385L13.2042 17.8714C13.1081 17.7665 12.9438 17.7629 12.8432 17.8636L10.7692 19.9376C10.7791 19.9592 10.7893 19.9802 10.7997 20.0008C11.0634 20.5182 11.4841 20.9389 12.0015 21.2026C12.2525 21.3305 12.575 21.4132 13.1123 21.4571C13.6583 21.5017 14.3575 21.5023 15.35 21.5023H16.65C17.6425 21.5023 18.3417 21.5017 18.8877 21.4571C19.425 21.4132 19.7475 21.3305 19.9985 21.2026C20.516 20.9389 20.9366 20.5182 21.2003 20.0008C21.3282 19.7498 21.4109 19.4273 21.4548 18.89C21.4731 18.6663 21.484 18.4168 21.4905 18.132Z" fill="white"/>
<path d="M14.5009 13.2574C14.5009 13.9491 13.9402 14.5098 13.2485 14.5098C12.5568 14.5098 11.9961 13.9491 11.9961 13.2574C11.9961 12.5658 12.5568 12.0051 13.2485 12.0051C13.9402 12.0051 14.5009 12.5658 14.5009 13.2574Z" fill="white"/>
<defs>
<linearGradient id="paint0_linear_629_37177" x1="0" y1="0" x2="32" y2="32" gradientUnits="userSpaceOnUse">
<stop stop-color="#F9839F"/>
<stop offset="1" stop-color="#B50A33"/>
</linearGradient>
</defs>
</svg>
