<svg xmlns="http://www.w3.org/2000/svg" viewBox="0 0 16 16" >
  <path fill-rule="evenodd" clip-rule="evenodd" d="M11.4256 2.49622C11.4174 2.50055 11.3879 2.51796 11.3277 2.56913C11.2289 2.65298 11.1053 2.77574 10.8986 2.9825L9.9793 3.90176C9.77254 4.10852 9.64978 4.23211 9.56593 4.33087C9.51476 4.39115 9.49734 4.42058 9.49301 4.42881C9.47808 4.47701 9.47808 4.5286 9.49301 4.57679C9.49734 4.58502 9.51476 4.61445 9.56593 4.67473C9.64978 4.7735 9.77254 4.89708 9.9793 5.10384L10.9016 6.0261C11.1083 6.23286 11.2319 6.35562 11.3307 6.43947C11.391 6.49064 11.4204 6.50806 11.4286 6.51239C11.4768 6.52732 11.5284 6.52732 11.5766 6.51239C11.5848 6.50806 11.6143 6.49064 11.6745 6.43947C11.7733 6.35562 11.8969 6.23286 12.1036 6.0261L13.0229 5.10684C13.2297 4.90008 13.3524 4.77649 13.4363 4.67772C13.4874 4.61745 13.5049 4.58801 13.5092 4.57979C13.5241 4.53159 13.5241 4.48 13.5092 4.4318C13.5049 4.42358 13.4874 4.39415 13.4363 4.33387C13.3524 4.2351 13.2297 4.11151 13.0229 3.90476L12.1006 2.9825C11.8939 2.77574 11.7703 2.65298 11.6715 2.56913C11.6112 2.51796 11.5818 2.50055 11.5736 2.49622C11.5254 2.48128 11.4738 2.48128 11.4256 2.49622ZM10.9588 1.07067C11.3103 0.956466 11.6889 0.956465 12.0404 1.07067C12.2862 1.15054 12.4793 1.28723 12.6423 1.42562C12.7935 1.55399 12.9607 1.72122 13.1428 1.9033L14.1021 2.86265C14.2842 3.0447 14.4514 3.2119 14.5798 3.3631C14.7182 3.52612 14.8549 3.71918 14.9347 3.96501C15.0489 4.31649 15.0489 4.6951 14.9347 5.04657C14.8549 5.2924 14.7182 5.48547 14.5798 5.64849C14.4514 5.7997 14.2842 5.96692 14.1021 6.14898L13.1458 7.1053C12.9637 7.28739 12.7965 7.45462 12.6453 7.58298C12.4823 7.72137 12.2892 7.85806 12.0434 7.93794C11.6919 8.05214 11.3133 8.05214 10.9618 7.93794C10.716 7.85806 10.5229 7.72137 10.3599 7.58298C10.2087 7.45462 10.0415 7.2874 9.85946 7.10532L8.90012 6.14598C8.71803 5.96392 8.55079 5.79671 8.42242 5.6455C8.28403 5.48248 8.14734 5.28941 8.06746 5.04358C7.95326 4.69211 7.95326 4.3135 8.06746 3.96202C8.14734 3.71619 8.28403 3.52313 8.42242 3.36011C8.55079 3.2089 8.71802 3.04169 8.90011 2.85963L9.85643 1.90331C10.0385 1.72122 10.2057 1.55399 10.3569 1.42563C10.5199 1.28723 10.713 1.15054 10.9588 1.07067ZM3.82379 1.49987C3.8325 1.49987 3.84124 1.49987 3.85 1.49987H5.15003C5.1588 1.49987 5.16753 1.49987 5.17625 1.49987C5.43374 1.49985 5.67022 1.49984 5.8679 1.51599C6.08103 1.5334 6.31421 1.57326 6.54451 1.69061C6.87379 1.85839 7.14151 2.1261 7.30929 2.45538C7.42664 2.68569 7.4665 2.91886 7.48391 3.13199C7.50007 3.32968 7.50005 3.56616 7.50003 3.82365L7.50004 5.18035C7.50006 5.43784 7.50008 5.67432 7.48392 5.87201C7.46651 6.08514 7.42665 6.31832 7.3093 6.54862C7.14153 6.87791 6.87381 7.14563 6.54452 7.31341C6.31422 7.43075 6.08105 7.47062 5.86791 7.48803C5.67022 7.50418 5.43374 7.50416 5.17625 7.50415H3.82379C3.5663 7.50416 3.32982 7.50418 3.13213 7.48803C2.919 7.47062 2.68583 7.43075 2.45552 7.31341C2.12624 7.14563 1.85852 6.87791 1.69074 6.54863C1.57339 6.31832 1.53353 6.08515 1.51612 5.87202C1.49997 5.67433 1.49998 5.43785 1.5 5.18036L1.5 3.84987C1.5 3.84111 1.5 3.83237 1.5 3.82365C1.49998 3.56617 1.49997 3.32969 1.51612 3.132C1.53353 2.91887 1.57339 2.6857 1.69074 2.45539C1.85852 2.12611 2.12624 1.85839 2.45552 1.69061C2.68583 1.57326 2.919 1.5334 3.13213 1.51599C3.32982 1.49984 3.5663 1.49985 3.82379 1.49987ZM3.13088 3.0296C3.13085 3.02959 3.13132 3.02939 3.13239 3.02904L3.13088 3.0296ZM3.13346 3.0287C3.14234 3.02594 3.17547 3.01744 3.25428 3.01101C3.38341 3.00046 3.5576 2.99987 3.85 2.99987H5.15003C5.44243 2.99987 5.61663 3.00046 5.74575 3.01101C5.82456 3.01744 5.85769 3.02594 5.86657 3.0287C5.91121 3.05222 5.94769 3.08869 5.97121 3.13333C5.97396 3.14221 5.98246 3.17534 5.9889 3.25415C5.99945 3.38327 6.00003 3.55747 6.00003 3.84987L6.00004 5.15414C6.00004 5.44654 5.99946 5.62074 5.98891 5.74987C5.98247 5.82868 5.97397 5.86181 5.97122 5.87068C5.9477 5.91532 5.91122 5.9518 5.86658 5.97532C5.8577 5.97808 5.82458 5.98657 5.74576 5.99301C5.61664 6.00356 5.44244 6.00414 5.15004 6.00414H3.85C3.5576 6.00414 3.38341 6.00356 3.25428 5.99301C3.17547 5.98657 3.14234 5.97808 3.13347 5.97532C3.08883 5.9518 3.05235 5.91532 3.02883 5.87068C3.02607 5.8618 3.01757 5.82868 3.01114 5.74987C3.00059 5.62074 3 5.44655 3 5.15414V3.84987C3 3.55747 3.00059 3.38328 3.01114 3.25415C3.01757 3.17534 3.02607 3.14221 3.02883 3.13334C3.05235 3.0887 3.08883 3.05222 3.13346 3.0287ZM3.02973 3.13075C3.02974 3.13078 3.02956 3.13131 3.02917 3.13226L3.02973 3.13075ZM3.02973 5.87327C3.02972 5.8733 3.02953 5.87283 3.02918 5.87178L3.02973 5.87327ZM3.13088 5.97442C3.13091 5.97441 3.13143 5.97458 3.13236 5.97497L3.13088 5.97442ZM5.86916 5.97442C5.86919 5.97443 5.86873 5.97462 5.86768 5.97497L5.86916 5.97442ZM5.97031 5.87327C5.9703 5.87324 5.97048 5.87272 5.97086 5.87178L5.97031 5.87327ZM5.9703 3.13075C5.97031 3.13072 5.97051 3.13119 5.97086 3.13226L5.9703 3.13075ZM5.86764 3.02904C5.86871 3.02939 5.86919 3.02959 5.86915 3.0296L5.86764 3.02904ZM3.82379 8.49987H5.17625C5.43373 8.49985 5.67022 8.49984 5.8679 8.51599C6.08103 8.5334 6.3142 8.57326 6.54451 8.69061C6.8738 8.85839 7.14151 9.1261 7.30929 9.45539C7.42664 9.68569 7.4665 9.91886 7.48391 10.132C7.50007 10.3297 7.50005 10.5662 7.50003 10.8237L7.50004 12.1804C7.50006 12.4378 7.50008 12.6743 7.48392 12.872C7.46651 13.0851 7.42665 13.3183 7.3093 13.5486C7.14152 13.8779 6.87381 14.1456 6.54452 14.3134C6.31422 14.4308 6.08105 14.4706 5.86791 14.488C5.67022 14.5042 5.43373 14.5042 5.17623 14.5041H3.82377C3.56629 14.5042 3.32981 14.5042 3.13213 14.488C2.919 14.4706 2.68583 14.4308 2.45552 14.3134C2.12623 14.1456 1.85852 13.8779 1.69074 13.5486C1.57339 13.3183 1.53353 13.0851 1.51612 12.872C1.49997 12.6743 1.49998 12.4378 1.5 12.1804V10.8237C1.49998 10.5662 1.49997 10.3297 1.51612 10.132C1.53353 9.91887 1.57339 9.6857 1.69074 9.45539C1.85852 9.1261 2.12624 8.85839 2.45552 8.69061C2.68583 8.57326 2.919 8.5334 3.13213 8.51599C3.32982 8.49984 3.5663 8.49985 3.82379 8.49987ZM3.13088 10.0296C3.13085 10.0296 3.13132 10.0294 3.13236 10.0291L3.13088 10.0296ZM3.13346 10.0287C3.14234 10.0259 3.17547 10.0174 3.25428 10.011C3.38341 10.0005 3.5576 9.99987 3.85 9.99987H5.15003C5.44243 9.99987 5.61663 10.0005 5.74575 10.011C5.82456 10.0174 5.85769 10.0259 5.86657 10.0287C5.9112 10.0522 5.94769 10.0887 5.97121 10.1333C5.97396 10.1422 5.98246 10.1753 5.9889 10.2541C5.99945 10.3833 6.00003 10.5575 6.00003 10.8499L6.00004 12.1541C6.00004 12.4465 5.99946 12.6207 5.98891 12.7499C5.98247 12.8287 5.97397 12.8618 5.97122 12.8707C5.9477 12.9153 5.91122 12.9518 5.86658 12.9753C5.8577 12.9781 5.82457 12.9866 5.74576 12.993C5.61664 13.0036 5.44244 13.0041 5.15004 13.0041H3.85C3.5576 13.0041 3.38341 13.0036 3.25428 12.993C3.17547 12.9866 3.14234 12.9781 3.13346 12.9753C3.08883 12.9518 3.05235 12.9153 3.02883 12.8707C3.02607 12.8618 3.01757 12.8287 3.01114 12.7499C3.00059 12.6207 3 12.4465 3 12.1541V10.8499C3 10.5575 3.00059 10.3833 3.01114 10.2541C3.01757 10.1753 3.02607 10.1422 3.02883 10.1333C3.05235 10.0887 3.08882 10.0522 3.13346 10.0287ZM3.02973 10.1307C3.02974 10.1308 3.02956 10.1313 3.02918 10.1322L3.02973 10.1307ZM3.02973 12.8733C3.02972 12.8733 3.02953 12.8728 3.02918 12.8718L3.02973 12.8733ZM3.13088 12.9744C3.13091 12.9744 3.13143 12.9746 3.13236 12.975L3.13088 12.9744ZM5.86917 12.9744C5.86919 12.9744 5.86872 12.9746 5.86768 12.975L5.86917 12.9744ZM5.97031 12.8733C5.9703 12.8732 5.97048 12.8727 5.97087 12.8718L5.97031 12.8733ZM5.9703 10.1307C5.97031 10.1307 5.9705 10.1312 5.97085 10.1322L5.9703 10.1307ZM5.86764 10.029C5.86871 10.0294 5.86919 10.0296 5.86915 10.0296L5.86764 10.029ZM10.8248 8.49987H12.1773C12.4348 8.49985 12.6713 8.49984 12.8689 8.51599C13.0821 8.5334 13.3152 8.57326 13.5455 8.69061C13.8748 8.85839 14.1425 9.1261 14.3103 9.45539C14.4277 9.68569 14.4675 9.91886 14.485 10.132C14.5011 10.3297 14.5011 10.5662 14.5011 10.8237L14.5011 12.1804C14.5011 12.4379 14.5011 12.6743 14.485 12.872C14.4676 13.0851 14.4277 13.3183 14.3103 13.5486C14.1426 13.8779 13.8748 14.1456 13.5456 14.3134C13.3153 14.4308 13.0821 14.4706 12.8689 14.488C12.6713 14.5042 12.4348 14.5042 12.1773 14.5041H10.8248C10.5673 14.5042 10.3309 14.5042 10.1332 14.488C9.92004 14.4706 9.68686 14.4308 9.45656 14.3134C9.12727 14.1456 8.85956 13.8779 8.69178 13.5486C8.57443 13.3183 8.53457 13.0851 8.51716 12.872C8.501 12.6743 8.50102 12.4378 8.50104 12.1804V10.8237C8.50102 10.5662 8.501 10.3297 8.51716 10.132C8.53457 9.91887 8.57443 9.6857 8.69178 9.45539C8.85956 9.1261 9.12727 8.85839 9.45656 8.69061C9.68686 8.57326 9.92004 8.5334 10.1332 8.51599C10.3309 8.49984 10.5673 8.49985 10.8248 8.49987ZM10.1319 10.0296C10.1319 10.0296 10.1324 10.0294 10.1334 10.0291L10.1319 10.0296ZM10.1345 10.0287C10.1434 10.0259 10.1765 10.0174 10.2553 10.011C10.3844 10.0005 10.5586 9.99987 10.851 9.99987H12.1511C12.4435 9.99987 12.6177 10.0005 12.7468 10.011C12.8256 10.0174 12.8587 10.0259 12.8676 10.0287C12.9122 10.0522 12.9487 10.0887 12.9722 10.1333C12.975 10.1422 12.9835 10.1753 12.9899 10.2541C13.0005 10.3833 13.0011 10.5575 13.0011 10.8499L13.0011 12.1541C13.0011 12.4465 13.0005 12.6207 12.9899 12.7499C12.9835 12.8287 12.975 12.8618 12.9723 12.8707C12.9487 12.9153 12.9123 12.9518 12.8676 12.9753C12.8587 12.9781 12.8256 12.9866 12.7468 12.993C12.6177 13.0036 12.4435 13.0041 12.1511 13.0041H10.851C10.5586 13.0041 10.3844 13.0036 10.2553 12.993C10.1765 12.9866 10.1434 12.9781 10.1345 12.9753C10.0899 12.9518 10.0534 12.9153 10.0299 12.8707C10.0271 12.8618 10.0186 12.8287 10.0122 12.7499C10.0016 12.6207 10.001 12.4465 10.001 12.1541V10.8499C10.001 10.5575 10.0016 10.3833 10.0122 10.2541C10.0186 10.1753 10.0271 10.1422 10.0299 10.1333C10.0534 10.0887 10.0899 10.0522 10.1345 10.0287ZM10.0308 10.1307C10.0308 10.1308 10.0306 10.1313 10.0302 10.1323L10.0308 10.1307ZM10.0308 12.8733C10.0308 12.8733 10.0306 12.8728 10.0302 12.8718L10.0308 12.8733ZM10.1319 12.9744C10.132 12.9744 10.1325 12.9746 10.1334 12.975L10.1319 12.9744ZM12.8702 12.9744C12.8702 12.9744 12.8697 12.9746 12.8687 12.975L12.8702 12.9744ZM12.9714 12.8733C12.9713 12.8733 12.9715 12.8727 12.9719 12.8718L12.9714 12.8733ZM12.9713 10.1307C12.9713 10.1307 12.9715 10.1312 12.9719 10.1322L12.9713 10.1307ZM12.8687 10.029C12.8697 10.0294 12.8702 10.0296 12.8702 10.0296L12.8687 10.029Z" />
</svg>