<svg width="16" height="16" viewBox="0 0 16 16" fill="none" xmlns="http://www.w3.org/2000/svg">
<g id="globe" clip-path="url(#clip0_877_3373)">
<path id="Vector" d="M2.8036 4.99805H4.93136C5.20393 4.00767 5.60992 3.09518 6.12818 2.29776C4.71686 2.76074 3.53598 3.7331 2.8036 4.99805ZM8.0002 2.30822C7.36149 3.02543 6.84135 3.94162 6.49682 4.99805H9.50369C9.15932 3.94141 8.63922 3.02533 8.0002 2.30822ZM9.8557 6.49805H6.14448C6.07205 6.98072 6.03383 7.48276 6.03383 8.00006C6.03383 8.51728 6.07222 9.01943 6.14492 9.50232H9.85562C9.928 9.01963 9.96618 8.51751 9.96618 8.00006C9.96618 7.48269 9.92803 6.98065 9.8557 6.49805ZM11.3698 9.50232H13.8106C13.9341 9.0228 14 8.51954 14 8C14 7.4806 13.9342 6.97745 13.8107 6.49805H11.3699C11.4334 6.98712 11.4662 7.48902 11.4662 8.00006C11.4662 8.51118 11.4334 9.01316 11.3698 9.50232ZM9.50346 11.0023H6.49812C6.84293 12.0578 7.36295 12.9739 8.00061 13.6912C8.63925 12.9742 9.15913 12.0585 9.50346 11.0023ZM6.13019 13.7029C5.61195 12.9053 5.20549 11.9927 4.93242 11.0023H2.80381C3.53655 12.2677 4.71812 13.2402 6.13019 13.7029ZM2.18944 9.50232H4.63058C4.5668 9.01306 4.53383 8.51107 4.53383 8.00006C4.53383 7.48905 4.56667 6.98716 4.63024 6.49805H2.18934C2.06583 6.97745 2 7.4806 2 8C2 8.51954 2.06586 9.0228 2.18944 9.50232ZM9.87246 13.702C11.2834 13.239 12.4639 12.2669 13.1962 11.0023H11.0689C10.7964 11.9925 10.3907 12.9048 9.87246 13.702ZM13.1964 4.99805C12.4642 3.73335 11.2836 2.76113 9.87267 2.29803C10.3909 3.09536 10.7967 4.00771 11.0691 4.99805H13.1964ZM0.927726 5.49789C1.95757 2.58706 4.73409 0.5 8 0.5C11.2659 0.5 14.0424 2.58706 15.0723 5.49789C15.3495 6.28142 15.5 7.12394 15.5 8C15.5 8.87621 15.3494 9.71887 15.0721 10.5025C14.0422 13.4131 11.2658 15.5 8 15.5C4.73424 15.5 1.95783 13.4131 0.92787 10.5025C0.65057 9.71887 0.5 8.87621 0.5 8C0.5 7.12394 0.650517 6.28142 0.927726 5.49789Z" />
</g>
<defs>
<clipPath id="clip0_877_3373">
<rect width="16" height="16" fill="white"/>
</clipPath>
</defs>
</svg>
