<svg xmlns="http://www.w3.org/2000/svg" width="24" height="24" viewBox="0 0 24 24" fill="none">
  <path d="M4.89098 9.77087V9.77086C4.3286 8.33222 3.93235 7.2147 3.75601 6.49734C3.73126 6.39663 3.70567 6.29419 3.68018 6.19212C3.60255 5.88132 3.5258 5.57398 3.47598 5.32973C3.44161 5.16123 3.40389 4.94897 3.3903 4.72925C3.37888 4.54463 3.36705 4.14366 3.54385 3.71161C3.77368 3.15001 4.25784 2.69672 4.9074 2.54164C5.40581 2.42264 5.83375 2.5229 6.03017 2.57716C6.44295 2.69117 6.88705 2.91993 7.24993 3.11436C8.28931 3.67123 12.3278 5.78776 15.401 7.39838C16.833 8.14886 18.0554 8.7895 18.6671 9.11134C18.7432 9.15137 18.8188 9.19104 18.8937 9.2303C19.3919 9.49168 19.8557 9.73496 20.1922 9.94554C20.3853 10.0663 20.6452 10.2416 20.8739 10.4739C21.0935 10.6971 21.4839 11.1752 21.5127 11.8938C21.5425 12.6396 21.1667 13.1594 20.9292 13.4154C20.696 13.6668 20.4282 13.849 20.2425 13.9665C19.9299 14.1644 19.499 14.391 19.0524 14.6259C18.9674 14.6706 18.8819 14.7156 18.7964 14.7608C18.336 15.0042 17.4592 15.4689 16.382 16.0398C13.2668 17.6907 8.47534 20.23 7.22867 20.8766C6.83779 21.0794 6.38173 21.3079 5.97464 21.4211C5.79092 21.4722 5.34287 21.5838 4.82337 21.4525C4.11014 21.2722 3.63286 20.7423 3.44392 20.1535C3.30443 19.7187 3.34347 19.3254 3.36293 19.1615C3.38727 18.9564 3.43181 18.755 3.46984 18.5964C3.50685 18.4421 3.55223 18.2701 3.59595 18.1044L3.60491 18.0705C3.65332 17.8869 3.70398 17.6941 3.75601 17.4824C3.92992 16.775 4.32011 15.6681 4.87409 14.2402C5.2331 13.3148 5.85858 12.5437 6.64523 11.9954C5.86773 11.45 5.24886 10.6863 4.89098 9.77087ZM9.08517 11.0825C9.17629 11.1002 9.30339 11.1254 9.45744 11.156C9.55411 11.1753 9.6614 11.1967 9.77707 11.2199C9.88214 11.2409 9.98231 11.261 10.0777 11.2802C11.0065 11.4674 11.4801 11.5761 11.5834 11.7458C11.6813 11.9063 11.6806 12.1091 11.5817 12.2689C11.4773 12.4379 11.003 12.5435 10.073 12.7247C9.97757 12.7433 9.87735 12.7627 9.77223 12.7831C9.65655 12.8054 9.54899 12.8262 9.45169 12.845C9.30012 12.8742 9.17348 12.8984 9.07991 12.9162C9.02647 12.9263 8.98382 12.9343 8.95347 12.9399C7.85403 13.1422 6.94382 13.8819 6.55222 14.8912C6.0629 16.1525 5.73362 17.0835 5.56436 17.6844C5.54125 17.7665 5.52112 17.8424 5.50397 17.9121C5.50295 17.9163 5.50193 17.9204 5.50091 17.9246C5.44328 18.1585 5.38775 18.369 5.33832 18.5563C5.00492 19.82 4.94919 20.0313 6.39986 19.2788C6.52235 19.2153 6.67936 19.1333 6.86588 19.0356C6.94145 18.996 7.02186 18.9538 7.10679 18.9092C8.93211 17.9507 12.8411 15.8791 15.5236 14.4575C16.6067 13.8835 17.4899 13.4155 17.9551 13.1695C18.0697 13.1089 18.1787 13.0516 18.2822 12.9971C18.2875 12.9943 18.2927 12.9915 18.298 12.9887C19.2334 12.496 19.7119 12.2383 19.7143 11.9763C19.7166 11.7169 19.2524 11.4533 18.3029 10.9533C18.2972 10.9503 18.2914 10.9473 18.2857 10.9442C18.1441 10.8697 17.9919 10.79 17.829 10.7043C17.2245 10.3863 16.0114 9.75053 14.5869 9.00396C11.9999 7.64814 8.71566 5.9269 7.11324 5.07982C7.04323 5.04281 6.97643 5.00747 6.91303 4.9739C6.7016 4.86193 6.52809 4.76968 6.39986 4.70098C4.9723 3.93613 5.03855 4.20149 5.41709 5.71773C5.44455 5.82776 5.47367 5.94437 5.50397 6.06765C5.50505 6.07202 5.50613 6.07641 5.50723 6.08082C5.52202 6.14038 5.53893 6.20423 5.55794 6.27238C5.56007 6.28001 5.56222 6.28769 5.5644 6.29543C5.73574 6.90318 6.07009 7.84321 6.56744 9.11552C6.96041 10.1208 7.86817 10.857 8.96405 11.0593C8.99092 11.0642 9.03189 11.0721 9.08517 11.0825Z"/>
</svg>