<svg xmlns="http://www.w3.org/2000/svg" viewBox="0 0 17 16" >
  <g clip-path="url(#clip0_911_355)">
    <path d="M5.19809 1.5013L5.22569 1.50133C5.24141 1.50134 5.25694 1.50135 5.27228 1.50136C5.54417 1.5015 5.75828 1.50161 5.97091 1.5351C6.22212 1.57467 6.46662 1.64888 6.69744 1.75563C6.89281 1.84599 7.07086 1.96491 7.29696 2.11593C7.30971 2.12445 7.32262 2.13307 7.33569 2.1418L9.16329 3.3615C9.24228 3.41422 9.28607 3.44332 9.32006 3.46434C9.34165 3.47769 9.35081 3.48241 9.35308 3.48351C9.37107 3.49137 9.38992 3.49708 9.40924 3.50053C9.40627 3.5 9.41272 3.50172 9.44734 3.50294C9.48728 3.50434 9.53986 3.50446 9.63482 3.50449L10.9332 3.50498C11.6063 3.50522 12.1569 3.50542 12.6043 3.54214C13.0674 3.58014 13.4856 3.661 13.8762 3.86014C14.4875 4.17181 14.9845 4.66896 15.2959 5.28037C15.4949 5.67103 15.5756 6.08931 15.6135 6.55243C15.65 6.99986 15.65 7.55039 15.65 8.22354L15.65 9.78354C15.65 10.4569 15.65 11.0076 15.6135 11.4552C15.5756 11.9185 15.4949 12.3369 15.2958 12.7276C14.9842 13.3391 14.487 13.8363 13.8755 14.1479C13.4848 14.347 13.0664 14.4277 12.6031 14.4656C12.1555 14.5022 11.6048 14.5022 10.9314 14.5021H5.36856C4.69519 14.5022 4.14449 14.5022 3.69693 14.4656C3.23366 14.4277 2.81527 14.347 2.42453 14.1479C1.813 13.8363 1.31581 13.3391 1.00422 12.7276C0.805131 12.3369 0.724396 11.9185 0.686546 11.4552C0.649978 11.0076 0.649985 10.4569 0.649994 9.78356V6.04528C0.649987 5.45218 0.649982 4.9671 0.678516 4.57146C0.708017 4.16242 0.770829 3.79125 0.926417 3.43852C1.25408 2.69567 1.84792 2.10236 2.59107 1.77537C2.94394 1.6201 3.31517 1.55762 3.72423 1.52849C4.1199 1.50032 4.60499 1.50076 5.19809 1.5013ZM3.83078 3.0247C3.50274 3.04807 3.32457 3.09141 3.19519 3.14834C2.79503 3.32441 2.47527 3.64388 2.29884 4.04388C2.24179 4.1732 2.19829 4.35134 2.17463 4.67936C2.15045 5.01465 2.14999 5.44548 2.14999 6.07289V9.75214C2.14999 10.4646 2.15058 10.9538 2.18156 11.3331C2.21184 11.7036 2.26734 11.9026 2.34073 12.0466C2.50851 12.3759 2.77623 12.6436 3.10551 12.8114C3.24955 12.8848 3.44857 12.9403 3.81907 12.9706C4.19833 13.0016 4.68756 13.0021 5.4 13.0021H10.9C11.6125 13.0021 12.1017 13.0016 12.4809 12.9706C12.8514 12.9403 13.0505 12.8848 13.1945 12.8114C13.5238 12.6436 13.7915 12.3759 13.9593 12.0466C14.0327 11.9026 14.0882 11.7036 14.1185 11.3331C14.1494 10.9538 14.15 10.4646 14.15 9.75212L14.15 8.25495C14.15 7.54275 14.1494 7.0537 14.1184 6.67457C14.0882 6.3042 14.0327 6.10523 13.9593 5.96121C13.7916 5.63199 13.524 5.3643 13.1949 5.19647C13.0509 5.12306 12.8519 5.06751 12.4816 5.03711C12.1025 5.006 11.6134 5.00523 10.9012 5.00497L9.63426 5.00449C9.62259 5.00449 9.61085 5.0045 9.59904 5.00451C9.45469 5.00465 9.30013 5.00479 9.1454 4.97714C9.01016 4.95298 8.87823 4.91297 8.75234 4.85795C8.60832 4.795 8.47987 4.70903 8.3599 4.62874C8.35009 4.62218 8.34033 4.61564 8.33063 4.60917L6.50303 3.38946C6.22049 3.2009 6.14388 3.15227 6.06779 3.11708C5.96287 3.06856 5.85173 3.03482 5.73755 3.01684C5.65473 3.00379 5.56401 3.00164 5.22433 3.00133C4.59692 3.00076 4.1661 3.00083 3.83078 3.0247Z" />
  </g>
  <defs>
    <clipPath id="clip0_911_355">
      <rect width="16" height="16"  transform="translate(0.149994)"/>
    </clipPath>
  </defs>
</svg>