<svg width="16" height="16" viewBox="0 0 16 16" fill="none" xmlns="http://www.w3.org/2000/svg">
<g id="help" clip-path="url(#clip0_877_3413)">
<g id="Vector">
<path d="M8 5.15C7.81163 5.14997 7.62858 5.21252 7.47961 5.32782C7.33065 5.44312 7.2242 5.60464 7.177 5.787C7.1274 5.97968 7.0033 6.14477 6.83198 6.24594C6.66067 6.34712 6.45618 6.3761 6.2635 6.3265C6.07082 6.2769 5.90573 6.1528 5.80456 5.98148C5.70338 5.81017 5.6744 5.60568 5.724 5.413C5.8665 4.85867 6.20641 4.3754 6.67992 4.05389C7.15344 3.73237 7.72802 3.59473 8.29582 3.66678C8.86363 3.73882 9.38561 4.01562 9.76383 4.44521C10.142 4.87479 10.3505 5.42765 10.35 6C10.35 7.036 9.784 7.578 9.387 7.948C8.997 8.311 8.801 8.498 8.742 8.906C8.70775 9.09729 8.60058 9.26782 8.44309 9.38165C8.28559 9.49549 8.09005 9.54375 7.89768 9.51627C7.7053 9.48879 7.5311 9.38771 7.41177 9.23432C7.29245 9.08094 7.23732 8.88723 7.258 8.694C7.392 7.752 7.943 7.241 8.308 6.904L8.363 6.852C8.716 6.522 8.85 6.364 8.85 6C8.85 5.88838 8.82801 5.77785 8.7853 5.67472C8.74258 5.57159 8.67997 5.47789 8.60104 5.39896C8.52211 5.32003 8.42841 5.25742 8.32528 5.2147C8.22215 5.17199 8.11162 5.15 8 5.15Z" />
<path d="M8.75 11.15C8.75 11.3489 8.67098 11.5397 8.53033 11.6803C8.38968 11.821 8.19891 11.9 8 11.9C7.80109 11.9 7.61032 11.821 7.46967 11.6803C7.32902 11.5397 7.25 11.3489 7.25 11.15C7.25 10.9511 7.32902 10.7603 7.46967 10.6197C7.61032 10.479 7.80109 10.4 8 10.4C8.19891 10.4 8.38968 10.479 8.53033 10.6197C8.67098 10.7603 8.75 10.9511 8.75 11.15Z" />
<path d="M8 2C4.68629 2 2 4.68629 2 8C2 11.3137 4.68629 14 8 14C11.3137 14 14 11.3137 14 8C14 4.68629 11.3137 2 8 2ZM0.5 8C0.5 3.85786 3.85786 0.5 8 0.5C12.1421 0.5 15.5 3.85786 15.5 8C15.5 12.1421 12.1421 15.5 8 15.5C3.85786 15.5 0.5 12.1421 0.5 8Z" />
</g>
</g>
<defs>
<clipPath id="clip0_877_3413">
<rect width="16" height="16" fill="white"/>
</clipPath>
</defs>
</svg>
