<svg width="16" height="16" viewBox="0 0 16 16" fill="none" xmlns="http://www.w3.org/2000/svg">
<g id="clock backward" clip-path="url(#clip0_877_3363)">
<g id="Vector">
<path d="M8.25843 4.47461C8.67264 4.47461 9.00843 4.8104 9.00843 5.22461V7.98571L11.2296 8.92626C11.6162 9.07495 11.8091 9.5089 11.6604 9.8955C11.5117 10.2821 11.0778 10.475 10.6912 10.3263L7.98919 9.20082C7.69955 9.08942 7.50843 8.81114 7.50843 8.50081V5.22461C7.50843 4.8104 7.84421 4.47461 8.25843 4.47461Z" />
<path d="M15.9999 8C15.9999 3.85786 12.642 0.5 8.49988 0.5C5.73269 0.5 3.31653 1.99898 2.01747 4.22577L1.74147 2.77671C1.66397 2.36981 1.27129 2.10278 0.864389 2.18028C0.45749 2.25778 0.190459 2.65046 0.267959 3.05736L0.849614 6.11122C0.925297 6.50858 1.30245 6.77433 1.70211 6.71191L4.86015 6.21867C5.2694 6.15475 5.54935 5.77117 5.48543 5.36192C5.42151 4.95267 5.03793 4.67272 4.62868 4.73664L3.33874 4.93811C4.3858 3.17734 6.30581 2 8.49988 2C11.8136 2 14.4999 4.68629 14.4999 8C14.4999 11.3137 11.8136 14 8.49988 14C7.42502 14 6.41828 13.718 5.54722 13.2246C5.18682 13.0204 4.72915 13.147 4.52497 13.5074C4.3208 13.8678 4.44745 14.3255 4.80784 14.5297C5.89848 15.1475 7.15915 15.5 8.49988 15.5C12.642 15.5 15.9999 12.1421 15.9999 8Z" />
</g>
</g>
<defs>
<clipPath id="clip0_877_3363">
<rect width="16" height="16" fill="white"/>
</clipPath>
</defs>
</svg>
