<svg width="16" height="16" viewBox="0 0 16 16" fill="none" xmlns="http://www.w3.org/2000/svg">
<g id="grid 4">
<g id="Vector">
<path d="M9.63945 2.16696C9.84318 2.058 10.0452 1.99998 10.6024 1.99998L12.3975 2.00003C12.9547 2.00002 13.1568 2.058 13.3605 2.16695C13.5642 2.2759 13.7241 2.43577 13.833 2.63946C13.942 2.84316 14 3.04525 14 3.60245L14 5.39755C14 5.95476 13.942 6.15681 13.833 6.36054C13.7241 6.56425 13.5643 6.72406 13.3605 6.83302C13.1568 6.94198 12.9548 7 12.3976 7L10.6024 6.99999C10.0452 6.99999 9.84316 6.94197 9.63947 6.83303C9.43576 6.72409 9.27589 6.56422 9.16696 6.36052C9.05801 6.15682 8.99999 5.95476 8.99999 5.39757L8.99999 3.60243C8.99999 3.04523 9.058 2.84317 9.16696 2.63945C9.27592 2.43572 9.43573 2.27592 9.63945 2.16696Z" />
<path d="M5.39757 8.99999C5.95477 8.99999 6.15682 9.05801 6.36053 9.16695C6.56423 9.27589 6.7241 9.43576 6.83304 9.63946C6.94198 9.84317 7 10.0452 7 10.6024V12.3976C7 12.9548 6.94198 13.1568 6.83304 13.3605C6.7241 13.5642 6.56423 13.7241 6.36053 13.833C6.15682 13.942 5.95477 14 5.39757 14H3.60243C3.04523 14 2.84318 13.942 2.63947 13.833C2.43577 13.7241 2.2759 13.5642 2.16696 13.3605C2.05802 13.1568 2 12.9548 2 12.3976V10.6024C2 10.0452 2.05802 9.84317 2.16696 9.63946C2.2759 9.43576 2.43577 9.27589 2.63947 9.16695C2.84318 9.05801 3.04523 8.99999 3.60243 8.99999H5.39757ZM12.3976 8.99999C12.9548 8.99999 13.1568 9.05801 13.3605 9.16695C13.5642 9.27589 13.7241 9.43576 13.833 9.63946C13.942 9.84317 14 10.0452 14 10.6024V12.3976C14 12.9548 13.942 13.1568 13.833 13.3605C13.7241 13.5642 13.5642 13.7241 13.3605 13.833C13.1568 13.942 12.9548 14 12.3976 14H10.6024C10.0452 14 9.84317 13.942 9.63947 13.833C9.43577 13.7241 9.2759 13.5642 9.16696 13.3605C9.05802 13.1568 9 12.9548 9 12.3976V10.6024C9 10.0452 9.05802 9.84317 9.16696 9.63946C9.2759 9.43576 9.43577 9.27589 9.63947 9.16695C9.84317 9.05801 10.0452 8.99999 10.6024 8.99999H12.3976ZM5.39757 1.99999C5.95477 1.99999 6.15682 2.05801 6.36053 2.16695C6.56423 2.27589 6.7241 2.43576 6.83304 2.63946C6.94198 2.84317 7 3.04522 7 3.60242V5.39756C7 5.95476 6.94198 6.15682 6.83304 6.36052C6.7241 6.56423 6.56423 6.72409 6.36053 6.83304C6.15682 6.94198 5.95477 6.99999 5.39757 6.99999H3.60243C3.04523 6.99999 2.84318 6.94198 2.63947 6.83304C2.43577 6.72409 2.2759 6.56423 2.16696 6.36052C2.05802 6.15682 2 5.95476 2 5.39756V3.60242C2 3.04522 2.05802 2.84317 2.16696 2.63946C2.2759 2.43576 2.43577 2.27589 2.63947 2.16695C2.84318 2.05801 3.04523 1.99999 3.60243 1.99999H5.39757Z" />
</g>
</g>
</svg>
