<?xml version="1.0" encoding="utf-8"?>
<!-- Generator: Adobe Illustrator 27.8.1, SVG Export Plug-In . SVG Version: 6.00 Build 0)  -->
<svg version="1.1" id="Layer_1" xmlns="http://www.w3.org/2000/svg" xmlns:xlink="http://www.w3.org/1999/xlink" x="0px" y="0px"
	 viewBox="0 0 1024 1024" style="enable-background:new 0 0 1024 1024;" xml:space="preserve">
<style type="text/css">
	.st0{fill:url(#SVGID_1_);}
	.st1{fill:url(#SVGID_00000075150658188964823570000013118982920252363443_);}
	.st2{fill:#FFFFFF;}
	.st3{fill:#58C142;}
	.st4{fill:url(#SVGID_00000112594339711612990680000002624432530892021946_);}
	.st5{fill:url(#SVGID_00000140719531123372030610000008195484546976963487_);}
	.st6{fill:url(#SVGID_00000178921119776480960350000009431495353979092624_);}
	.st7{fill:url(#SVGID_00000016768039583747816600000018263155026811122865_);}
	.st8{fill:url(#SVGID_00000044885518158126509950000016130982060394487440_);}
	.st9{fill:url(#SVGID_00000106129665382546024650000004877767554412198583_);}
	.st10{fill:url(#SVGID_00000083802268480699847100000012000850824661000362_);}
	.st11{fill:url(#SVGID_00000008837751933091038900000017899611971679674516_);}
	.st12{fill:url(#SVGID_00000108294032626366517620000010242680764503622051_);}
	.st13{fill:url(#SVGID_00000141443312969477751860000005551731547830776740_);}
</style>
<rect x="-11.5" y="-11.5" width="1047.1" height="1047.1"/>
<g>
	<g>
		<linearGradient id="SVGID_1_" gradientUnits="userSpaceOnUse" x1="143.9875" y1="428.1396" x2="833.9507" y2="428.1396">
			<stop  offset="0.1418" style="stop-color:#1F4D22"/>
			<stop  offset="0.8656" style="stop-color:#418D31"/>
		</linearGradient>
		<path class="st0" d="M374,492.4c-36.2,0-56.1,23.5-67,76.1l-163-23.6c19.9-172,86.9-255.3,219.1-255.3
			c97.8,0,193.8,74.3,240.9,74.3c36.2,0,56.1-25.4,67-76.1l163,23.5c-18.1,172-86.9,255.4-219.1,255.4
			C515.2,566.7,422.9,492.4,374,492.4z"/>
	</g>
	<g>
		
			<linearGradient id="SVGID_00000066484680017610105720000010460662955817103787_" gradientUnits="userSpaceOnUse" x1="190.0493" y1="595.8604" x2="880.0125" y2="595.8604">
			<stop  offset="0.2223" style="stop-color:#418D31"/>
			<stop  offset="0.7733" style="stop-color:#58C142"/>
		</linearGradient>
		<path style="fill:url(#SVGID_00000066484680017610105720000010460662955817103787_);" d="M420,660.1c-36.2,0-56.1,23.5-67,76.1
			l-163-23.6c19.9-172,86.9-255.3,219.1-255.3c97.8,0,193.8,74.3,240.9,74.3c36.2,0,56.1-25.4,67-76.1L880,479
			c-18.1,172-86.9,255.4-219.1,255.4C561.3,734.4,468.9,660.1,420,660.1z"/>
	</g>
</g>
</svg>
