<svg width="16" height="16" viewBox="0 0 16 16" fill="none" xmlns="http://www.w3.org/2000/svg">
<g id="arrows up_down">
<g id="Vector">
<path d="M12.1297 9.69269C12.3999 10.0066 12.3645 10.4801 12.0506 10.7504L8.48447 13.8208C8.20296 14.0632 7.78645 14.063 7.50519 13.8203L3.94636 10.7499C3.63274 10.4793 3.59785 10.0057 3.86843 9.69211C4.13901 9.37849 4.6126 9.3436 4.92622 9.61418L7.99562 12.2624L11.0719 9.61368C11.3858 9.34342 11.8594 9.37879 12.1297 9.69269Z" fill="#C3C8C2"/>
<path d="M12.1297 6.31224C12.3999 5.99834 12.3645 5.52479 12.0506 5.25453L8.48447 2.18408C8.20296 1.94171 7.78645 1.94192 7.50519 2.18458L3.94636 5.25502C3.63274 5.52561 3.59785 5.9992 3.86843 6.31282C4.13901 6.62644 4.6126 6.66133 4.92622 6.39075L7.99562 3.74257L11.0719 6.39125C11.3858 6.66151 11.8594 6.62614 12.1297 6.31224Z" fill="#C3C8C2"/>
</g>
</g>
</svg>
