<svg width="16" height="16" viewBox="0 0 16 16" fill="none" xmlns="http://www.w3.org/2000/svg">
<g id="cancel">
<path id="Vector" d="M13.0261 2.96991C13.319 3.26281 13.319 3.73768 13.0261 4.03057L9.05864 7.998L13.0261 11.9654C13.3189 12.2583 13.3189 12.7332 13.0261 13.0261C12.7332 13.319 12.2583 13.319 11.9654 13.0261L7.99798 9.05866L4.03059 13.0261C3.73769 13.3189 3.26282 13.3189 2.96993 13.0261C2.67703 12.7332 2.67703 12.2583 2.96993 11.9654L6.93732 7.998L2.96991 4.03059C2.67702 3.7377 2.67702 3.26282 2.96991 2.96993C3.26281 2.67704 3.73768 2.67704 4.03057 2.96993L7.99798 6.93734L11.9654 2.96991C12.2583 2.67702 12.7332 2.67702 13.0261 2.96991Z" fill="#C3C8C2"/>
</g>
</svg>
