<svg viewBox="0 0 16 16" fill="none" xmlns="http://www.w3.org/2000/svg">
<g id="bookmark">
<path id="Vector" fill-rule="evenodd" clip-rule="evenodd" d="M7.5179 1H8.4821C9.2949 1 9.9506 1 10.4815 1.0433C11.0281 1.088 11.5082 1.1823 11.9525 1.4085C12.658 1.76766 13.2317 2.34095 13.5913 3.0462C13.8176 3.4901 13.912 3.9699 13.9566 4.5162C14 5.0467 14 5.7019 14 6.5142V12.0135C14 12.5104 14 12.9343 13.9695 13.2677C13.9392 13.5992 13.8703 13.9829 13.6249 14.3006C13.4636 14.5095 13.2583 14.6803 13.0235 14.801C12.7888 14.9217 12.5305 14.9894 12.2667 14.9991C11.8655 15.0139 11.5129 14.847 11.2254 14.6789C10.9362 14.51 10.591 14.2635 10.1864 13.9747L8.4941 12.7667C8.3185 12.6414 8.2171 12.5695 8.1376 12.5206C8.0888 12.4906 8.0664 12.4809 8.0603 12.4786C8.0207 12.4688 7.9793 12.4688 7.9397 12.4786C7.9337 12.4809 7.9112 12.4906 7.8624 12.5206C7.7829 12.5695 7.6814 12.6414 7.506 12.7667L5.8137 13.9747C5.409 14.2635 5.0638 14.51 4.7747 14.6789C4.4871 14.847 4.1345 15.0139 3.7333 14.9991C3.46955 14.9893 3.21117 14.9217 2.97646 14.801C2.74175 14.6803 2.53645 14.5095 2.3751 14.3006C2.1297 13.9829 2.0608 13.5992 2.0305 13.2677C2 12.9343 2 12.5104 2 12.0135V6.5142C2 5.7019 2 5.0467 2.0434 4.5162C2.088 3.9699 2.1824 3.4901 2.4087 3.0462C2.76834 2.34095 3.34201 1.76766 4.0475 1.4085C4.4918 1.1823 4.9719 1.088 5.5185 1.0433C6.0495 1 6.7051 1 7.518 1H7.5179ZM7.9415 12.478L7.9397 12.4786L7.9415 12.478ZM8.0585 12.478L8.0603 12.4786L8.0585 12.478ZM5.6407 2.5374C5.1868 2.5744 4.926 2.6435 4.7285 2.7441C4.3052 2.95959 3.96099 3.30356 3.7452 3.7267C3.6446 3.9241 3.5755 4.1847 3.5384 4.6383C3.5006 5.1006 3.5 5.6944 3.5 6.5463V11.9781C3.5 12.5201 3.5008 12.8745 3.5242 13.1312C3.5407 13.311 3.5644 13.3792 3.57 13.394C3.59567 13.4246 3.6272 13.4498 3.66275 13.4681C3.6983 13.4864 3.73715 13.4974 3.777 13.5004C3.7922 13.4963 3.8616 13.476 4.0175 13.3849C4.2402 13.2548 4.5292 13.0494 4.9705 12.7344L6.6341 11.5469C6.9171 11.3449 7.2178 11.115 7.5703 11.0258C7.85232 10.9544 8.14768 10.9544 8.4297 11.0258C8.7822 11.115 9.0829 11.3449 9.3659 11.5469L11.0295 12.7344C11.4708 13.0494 11.7598 13.2548 11.9825 13.3849C12.1384 13.476 12.2078 13.4963 12.2231 13.5004C12.2629 13.4974 12.3018 13.4864 12.3373 13.4681C12.3728 13.4498 12.4043 13.4246 12.43 13.394C12.4356 13.3792 12.4593 13.311 12.4758 13.1312C12.4993 12.8745 12.5 12.5201 12.5 11.9781V6.5463C12.5 5.6944 12.4994 5.1006 12.4616 4.6383C12.4245 4.1847 12.3554 3.9241 12.2548 3.7267C12.039 3.30357 11.6948 2.95961 11.2715 2.7441C11.074 2.6435 10.8132 2.5744 10.3593 2.5374C9.8967 2.4996 9.3025 2.499 8.45 2.499H7.55C6.6975 2.499 6.1033 2.4996 5.6407 2.5374Z" />
</g>
</svg>
