<svg width="16" height="16" viewBox="0 0 16 16" fill="none" xmlns="http://www.w3.org/2000/svg">
<g id="globe">
<path id="Vector" fill-rule="evenodd" clip-rule="evenodd" d="M5.51561 7.24988C5.58926 5.49464 5.91878 3.94637 6.3934 2.81642C6.66453 2.17096 6.96822 1.69729 7.26714 1.39629C7.56327 1.0981 7.81035 1.00977 8.00003 1.00977C8.1897 1.00977 8.43678 1.0981 8.73291 1.39629C9.03183 1.69729 9.33553 2.17096 9.60665 2.81642C10.0813 3.94637 10.4108 5.49464 10.4844 7.24988H5.51561ZM4.01441 7.24988H1.03973C1.31693 4.64752 3.02019 2.47128 5.35297 1.51768C5.22994 1.74443 5.1158 1.98471 5.01045 2.23552C4.44737 3.57606 4.0887 5.32893 4.01441 7.24988ZM10.6471 1.51768C10.7701 1.74443 10.8842 1.98471 10.9896 2.23552C11.5527 3.57606 11.9114 5.32893 11.9856 7.24988H14.9603C14.6831 4.64752 12.9799 2.47128 10.6471 1.51768ZM10.4842 8.74988C10.4101 10.5028 10.0808 12.049 9.60665 13.1777C9.33553 13.8232 9.03183 14.2968 8.73291 14.5978C8.43678 14.896 8.1897 14.9844 8.00003 14.9844C7.81035 14.9844 7.56327 14.896 7.26714 14.5978C6.96822 14.2968 6.66453 13.8232 6.3934 13.1777C5.91928 12.049 5.58997 10.5028 5.51585 8.74988H10.4842ZM11.9854 8.74988H14.9603C14.683 11.3537 12.978 13.5309 10.6432 14.4837C10.7677 14.2548 10.8831 14.0121 10.9896 13.7586C11.5521 12.4194 11.9107 10.6686 11.9854 8.74988ZM5.35689 14.4837C3.0221 13.5309 1.31708 11.3537 1.03973 8.74988H4.01463C4.0894 10.6686 4.44792 12.4194 5.01045 13.7586C5.11692 14.0121 5.23237 14.2548 5.35689 14.4837Z" fill="#C3C8C2"/>
</g>
</svg>
