<svg width="48" height="48" viewBox="0 0 48 48" fill="none" xmlns="http://www.w3.org/2000/svg">
<g id="help">
<path id="Vector" d="M23.9468 3.16714C12.682 2.96414 3.38555 11.9315 3.18255 23.1963C2.97955 34.461 11.9469 43.7575 23.2117 43.9605C34.4764 44.1635 43.7729 35.1961 43.9759 23.9314C44.1789 12.6666 35.2115 3.37014 23.9468 3.16714ZM23.7413 14.5653C22.3462 14.5401 21.1521 15.4731 20.7957 16.7612C20.5306 17.7193 19.539 18.2811 18.5809 18.0161C17.6228 17.751 17.061 16.7594 17.3261 15.8012C18.1098 12.9686 20.7289 10.9104 23.8062 10.9659C27.4508 11.0316 30.3519 14.0392 30.2863 17.6837C30.2339 20.59 28.6376 22.0717 27.4405 23.1492L27.4205 23.1672C26.2542 24.2169 25.5369 24.8629 25.3131 26.2501C25.1548 27.2315 24.2308 27.8987 23.2494 27.7406C22.2679 27.5822 21.6007 26.6583 21.759 25.6767C22.1877 23.0184 23.7599 21.6119 24.867 20.6214L25.032 20.4736C26.1224 19.492 26.6636 18.9119 26.6869 17.6189C26.7167 15.9623 25.3978 14.5951 23.7413 14.5653ZM25.8059 33.2055C25.782 34.5308 24.6883 35.5858 23.363 35.5619C22.0378 35.538 20.9828 34.4443 21.0067 33.119C21.0305 31.7937 22.1243 30.7388 23.4495 30.7627C24.7748 30.7865 25.8298 31.8802 25.8059 33.2055Z" fill="#58C142"/>
</g>
</svg>
