<svg viewBox="0 0 16 16" fill="none" xmlns="http://www.w3.org/2000/svg">
<g id="settings">
<g id="Vector">
<path d="M3.87111 6.59137C3.78902 6.83702 3.72823 7.09242 3.69095 7.35539C3.68706 7.38284 3.68342 7.41037 3.68005 7.43797L2.65354 7.94788C2.38137 8.08308 2.23593 8.38598 2.3006 8.68291L2.52099 9.69485C2.58566 9.99179 2.84388 10.2068 3.14762 10.2165L4.293 10.2534C4.47187 10.5434 4.68382 10.8108 4.92358 11.0503L4.69475 12.1739C4.6341 12.4717 4.78362 12.7726 5.0576 12.9041L5.99127 13.3522C6.26524 13.4838 6.59354 13.4122 6.78794 13.1786L7.52114 12.2977C7.67826 12.3149 7.83788 12.3237 7.99957 12.3237C8.16209 12.3237 8.32253 12.3148 8.48043 12.2974L9.21413 13.1779C9.40868 13.4114 9.73702 13.4827 10.0109 13.351L10.9443 12.9023C11.2182 12.7706 11.3675 12.4696 11.3067 12.1719L11.0772 11.0486C11.3077 10.8181 11.5123 10.562 11.6866 10.2847L12.8321 10.2576C13.1359 10.2504 13.3959 10.0376 13.4631 9.74123L13.6921 8.7312C13.7592 8.43482 13.6164 8.13071 13.3454 7.99321L12.3234 7.47471C12.2864 7.14922 12.2135 6.83462 12.1087 6.53498L12.8023 5.62371C12.9864 5.38188 12.9825 5.0459 12.7929 4.80838L12.1468 3.99895C11.9573 3.76144 11.6305 3.68318 11.3539 3.80904L10.3109 4.28364C10.0393 4.11309 9.74756 3.9717 9.44004 3.86387L9.1605 2.75335C9.08632 2.45864 8.82131 2.25208 8.51741 2.25208H7.48175C7.17786 2.25208 6.91285 2.45864 6.83866 2.75334L6.55911 3.86387C6.25956 3.9689 5.97498 4.10577 5.70944 4.27042L4.66908 3.78977C4.3932 3.66231 4.06599 3.73869 3.87504 3.97511L3.22432 4.78081C3.03338 5.01723 3.02757 5.35318 3.21022 5.59606L3.89867 6.51151C3.88924 6.53801 3.88005 6.56463 3.87111 6.59137ZM2.01139 6.49761C1.41559 5.70536 1.43454 4.60951 2.05738 3.83833L2.70811 3.03263C3.33096 2.26145 4.39829 2.01232 5.29819 2.42807L5.36587 2.45934L5.38405 2.38716C5.62604 1.42587 6.49047 0.752075 7.48175 0.752075H8.51741C9.50871 0.752075 10.3731 1.42588 10.6151 2.38719L10.64 2.4859L10.7326 2.44374C11.6349 2.03318 12.7008 2.28846 13.3192 3.06321L13.9652 3.87264C14.5836 4.6474 14.5963 5.74335 13.9959 6.53216L13.936 6.61086L14.0241 6.65553C14.9081 7.10405 15.3741 8.09605 15.1549 9.0628L14.926 10.0728C14.7068 11.0396 13.8586 11.7337 12.8676 11.7572L12.7535 11.7599L12.7764 11.8717C12.9748 12.8429 12.4876 13.8247 11.5942 14.2542L10.6608 14.7029C9.76741 15.1324 8.69638 14.8997 8.06179 14.1381L8.00131 14.0656L7.94087 14.1382C7.30673 14.9001 6.23586 15.1335 5.34219 14.7045L4.40851 14.2564C3.51483 13.8274 3.02709 12.8459 3.22492 11.8746L3.25623 11.7208L3.09937 11.7158C2.1086 11.6839 1.26629 10.9826 1.05534 10.0141L0.834953 9.00212C0.624003 8.03353 1.09843 7.0455 1.98622 6.6045L2.06306 6.56633L2.01139 6.49761Z" />
<path d="M6.05546 6.05546C6.55229 5.55862 7.24082 5.25 8 5.25C8.75919 5.25 9.44772 5.55862 9.94455 6.05546C10.4414 6.55229 10.75 7.24082 10.75 8C10.75 8.75918 10.4414 9.44771 9.94455 9.94454C9.44772 10.4414 8.75919 10.75 8 10.75C7.24082 10.75 6.55229 10.4414 6.05546 9.94454C5.55863 9.44771 5.25 8.75918 5.25 8C5.25 7.24082 5.55863 6.55229 6.05546 6.05546ZM8 6.75C7.65462 6.75 7.34315 6.88909 7.11612 7.11612C6.88909 7.34314 6.75 7.65461 6.75 8C6.75 8.34538 6.88909 8.65686 7.11612 8.88388C7.34315 9.11091 7.65462 9.25 8 9.25C8.34539 9.25 8.65686 9.11091 8.88389 8.88388C9.11091 8.65686 9.25 8.34538 9.25 8C9.25 7.65461 9.11091 7.34314 8.88389 7.11612C8.65686 6.88909 8.34539 6.75 8 6.75Z" />
</g>
</g>
</svg>
