<svg width="48" height="48" viewBox="0 0 48 48" fill="none" xmlns="http://www.w3.org/2000/svg">
<g id="shield check">
<g id="Vector">
<path d="M24.3696 6.0192C24.1241 5.98873 23.8759 5.98873 23.6304 6.0192C23.3928 6.0504 23.1432 6.1224 22.2168 6.4176L11.0208 9.9792C10.5168 10.14 10.2288 10.2336 10.0128 10.3176C9.94556 10.3425 9.88053 10.373 9.8184 10.4088C9.74112 10.4722 9.6809 10.5538 9.6432 10.6464C9.62911 10.7176 9.62108 10.7899 9.6192 10.8624C9.60207 11.2149 9.59567 11.5679 9.6 11.9208V25.5768C9.6 30.0336 11.9832 33.6264 15.0288 36.408C18.0768 39.1896 21.6048 40.9848 23.4432 41.808C23.6592 41.904 23.7456 41.9424 23.8128 41.9664C23.934 42.0088 24.066 42.0088 24.1872 41.9664C24.2544 41.9424 24.3432 41.904 24.5568 41.808C26.3952 40.9848 29.9256 39.1896 32.9712 36.408C36.0192 33.6288 38.4 30.036 38.4 25.5792V11.9232C38.4 11.3952 38.4 11.088 38.3832 10.86C38.3806 10.7874 38.3718 10.7151 38.3568 10.644C38.3194 10.5526 38.2601 10.4718 38.184 10.4088C38.1211 10.3729 38.0553 10.3423 37.9872 10.3176C37.6547 10.1954 37.3185 10.0833 36.9792 9.9816L25.7832 6.4176C24.8568 6.1224 24.6072 6.0504 24.3672 6.0192H24.3696ZM23.1888 2.448C23.7275 2.38128 24.2725 2.38128 24.8112 2.448C25.4568 2.5272 26.0736 2.7312 26.8752 2.9856L38.0712 6.5496L38.2632 6.6096C39.0216 6.8496 39.8304 7.104 40.464 7.6224C41.0136 8.0736 41.4384 8.6568 41.7024 9.3168C42.0048 10.0776 42.0024 10.9248 42 11.7216V25.5792C42 31.4352 38.8464 35.9208 35.4 39.0672C31.9488 42.2184 28.0272 44.2032 26.0256 45.096C25.6608 45.2616 25.2624 45.4464 24.7056 45.5424C24.2808 45.6144 23.7192 45.6144 23.2968 45.5424C22.7376 45.4464 22.3392 45.2616 21.9744 45.096C19.9752 44.2032 16.0512 42.2184 12.6024 39.0696C9.1536 35.9208 6 31.4352 6 25.5816V11.7216C5.9976 10.9248 5.9952 10.0776 6.2976 9.3168C6.56036 8.6563 6.98646 8.0733 7.536 7.6224C8.1696 7.104 8.976 6.8496 9.7368 6.6096L9.9288 6.5496L21.1248 2.9856C21.9288 2.7312 22.5432 2.5272 23.1888 2.448Z" fill="#58C142"/>
<path fill-rule="evenodd" clip-rule="evenodd" d="M24.3696 6.0192C24.1241 5.98873 23.8759 5.98873 23.6304 6.0192C23.3928 6.0504 23.1432 6.1224 22.2168 6.4176L11.0208 9.9792C10.5168 10.14 10.2288 10.2336 10.0128 10.3176C9.94556 10.3425 9.88053 10.373 9.8184 10.4088C9.74112 10.4722 9.6809 10.5538 9.6432 10.6464C9.62911 10.7176 9.62108 10.7899 9.6192 10.8624C9.60207 11.2149 9.59567 11.5679 9.6 11.9208V25.5768C9.6 30.0336 11.9832 33.6264 15.0288 36.408C18.0768 39.1896 21.6048 40.9848 23.4432 41.808C23.6592 41.904 23.7456 41.9424 23.8128 41.9664C23.934 42.0088 24.066 42.0088 24.1872 41.9664C24.2544 41.9424 24.3432 41.904 24.5568 41.808C26.3952 40.9848 29.9256 39.1896 32.9712 36.408C36.0192 33.6288 38.4 30.036 38.4 25.5792V11.9232C38.4 11.3952 38.4 11.088 38.3832 10.86C38.3806 10.7874 38.3718 10.7151 38.3568 10.644C38.3194 10.5526 38.2601 10.4718 38.184 10.4088C38.1211 10.3729 38.0553 10.3423 37.9872 10.3176C37.6547 10.1954 37.3185 10.0833 36.9792 9.9816L25.7832 6.4176C24.8568 6.1224 24.6072 6.0504 24.3672 6.0192H24.3696ZM33.436 17.8489C33.3374 17.634 33.1974 17.4407 33.024 17.28C32.8507 17.1192 32.6498 16.9942 32.4281 16.912C32.2064 16.8298 31.9708 16.7921 31.7345 16.8011C31.4983 16.81 31.2661 16.8653 31.0513 16.964C30.8364 17.0626 30.6431 17.2026 30.4824 17.376L21.7704 26.7552L17.52 22.176C17.1917 21.8417 16.7459 21.6486 16.2774 21.6378C15.809 21.627 15.3548 21.7992 15.0113 22.118C14.6679 22.4367 14.4623 22.8769 14.4382 23.3448C14.4141 23.8128 14.5735 24.2717 14.8824 24.624L20.4504 30.624C20.6189 30.8057 20.8231 30.9507 21.0503 31.0499C21.2774 31.1491 21.5226 31.2002 21.7704 31.2002C22.0182 31.2002 22.2634 31.1491 22.4905 31.0499C22.7177 30.9507 22.9219 30.8057 23.0904 30.624L33.12 19.824C33.2808 19.6507 33.4058 19.4474 33.488 19.2257C33.5702 19.004 33.6079 18.7684 33.5989 18.5321C33.59 18.2959 33.5347 18.0637 33.436 17.8489Z" fill="#58C142"/>
</g>
</g>
</svg>
