<svg viewBox="0 0 16 16" fill="none" xmlns="http://www.w3.org/2000/svg">
<g id="actions">
<path id="Vector" d="M6.79999 4C6.79999 3.33728 7.33724 2.8 7.99999 2.8C8.66271 2.8 9.19999 3.33728 9.19999 4C9.19999 4.66272 8.66271 5.2 7.99999 5.2C7.33724 5.2 6.79999 4.66272 6.79999 4ZM6.79999 8C6.79999 7.33728 7.33724 6.8 7.99999 6.8C8.66271 6.8 9.19999 7.33728 9.19999 8C9.19999 8.66274 8.66271 9.2 7.99999 9.2C7.33724 9.2 6.79999 8.66274 6.79999 8ZM6.79999 12C6.79999 11.3373 7.33724 10.8 7.99999 10.8C8.66271 10.8 9.19999 11.3373 9.19999 12C9.19999 12.6627 8.66271 13.2 7.99999 13.2C7.33724 13.2 6.79999 12.6627 6.79999 12Z" />
</g>
</svg>
