<?xml version="1.0" encoding="UTF-8"?>
<svg id="svg2" version="1.1" fill="none" viewBox="0 0 16 16" xmlns="http://www.w3.org/2000/svg">
	<g id="g2" transform="matrix(1 0 0 1 -4 -4)" fill="#000">
		<path id="arrow1" class="arrow"
			d="m10.208 13.003c0.4262 0 0.7723 0.34592 0.7723 0.77195v5.4527c0 0.42604-0.3461 0.77195-0.7723 0.77195-0.42619 0-0.77227-0.34592-0.77227-0.77195v-4.6825l-4.6832-0.0017c-0.4262 0-0.77228-0.34592-0.77228-0.77185 0-0.42604 0.34608-0.77195 0.77228-0.77195h5.4554v0.0034z" />
		<path id="arrow2" class="arrow"
			d="m13.772 10.997c-0.42624 0-0.77233-0.34581-0.77233-0.77184v-5.4527c0-0.426 0.34609-0.77191 0.77233-0.77191 0.42614 0 0.77223 0.34591 0.77223 0.77191v4.6826l4.6832 0.0017c0.42625 0 0.77223 0.34591 0.77223 0.77187 0 0.42603-0.34599 0.77195-0.77223 0.77195h-5.4554v-0.0035z" />
	</g>
</svg>
