<svg xmlns="http://www.w3.org/2000/svg" viewBox="0 0 16 16" >
  <path d="M4.75681 5.80302C5.06214 5.52311 5.08275 5.04869 4.80285 4.74336C4.52294 4.43803 4.04852 4.41742 3.74319 4.69732L0.743188 7.4475C0.588221 7.58957 0.499993 7.79015 0.5 8.00038C0.500007 8.21061 0.588248 8.41118 0.743225 8.55323L3.74322 11.3031C4.04857 11.5829 4.523 11.5623 4.80288 11.2569C5.08277 10.9516 5.06212 10.4772 4.75678 10.1973L2.35992 8.00032L4.75681 5.80302Z" />
  <path d="M9.73008 3.91991C9.82491 3.5167 9.57491 3.11296 9.1717 3.01813C8.76848 2.92331 8.36474 3.1733 8.26992 3.57652L6.26992 12.0808C6.17509 12.484 6.42509 12.8877 6.8283 12.9826C7.23152 13.0774 7.63526 12.8274 7.73008 12.4242L9.73008 3.91991Z" fill="white"/>
  <path d="M12.2568 4.69732C11.9515 4.41742 11.4771 4.43803 11.1972 4.74336C10.9172 5.04869 10.9379 5.52311 11.2432 5.80302L13.6401 8.00032L11.2432 10.1973C10.9379 10.4772 10.9172 10.9516 11.1971 11.2569C11.477 11.5623 11.9514 11.5829 12.2568 11.3031L15.2568 8.55323C15.4118 8.41118 15.5 8.21061 15.5 8.00038C15.5 7.79015 15.4118 7.58957 15.2568 7.4475L12.2568 4.69732Z" />
</svg>