<svg viewBox="0 0 32 32" fill="none" xmlns="http://www.w3.org/2000/svg">
<rect width="32" height="32" rx="8" fill="url(#paint0_linear_629_37175)"/>
<path fill-rule="evenodd" clip-rule="evenodd" d="M18.281 10H13.72C13.046 10 12.495 10 12.048 10.037C11.585 10.074 11.166 10.155 10.776 10.354C10.1646 10.6656 9.66756 11.1626 9.356 11.774C9.156 12.165 9.076 12.584 9.038 13.047C9 13.494 9 14.045 9 14.719V17.28C9 17.954 9 18.504 9.037 18.952C9.074 19.415 9.155 19.834 9.354 20.225C9.66556 20.8364 10.1626 21.3334 10.774 21.645C11.165 21.844 11.584 21.925 12.047 21.962C12.494 21.999 13.045 21.999 13.719 21.999H18.281C18.955 21.999 19.505 21.999 19.953 21.962C20.416 21.925 20.835 21.844 21.226 21.645C21.8374 21.3334 22.3344 20.8364 22.646 20.225C22.845 19.834 22.926 19.415 22.963 18.952C23 18.505 23 17.954 23 17.28V14.72C23 14.046 23 13.495 22.963 13.048C22.926 12.585 22.845 12.166 22.646 11.776C22.3344 11.1646 21.8374 10.6676 21.226 10.356C20.835 10.156 20.416 10.076 19.953 10.038C19.506 10 18.955 10 18.281 10ZM11.456 11.69C11.6 11.617 11.799 11.562 12.169 11.532C12.549 11.501 13.038 11.5 13.75 11.5H18.25C18.962 11.5 19.452 11.5 19.83 11.532C20.201 11.562 20.4 11.617 20.544 11.691C20.874 11.859 21.142 12.126 21.309 12.456C21.383 12.6 21.439 12.799 21.469 13.169C21.477 13.271 21.483 13.38 21.487 13.5H10.513C10.517 13.38 10.523 13.27 10.532 13.17C10.562 12.799 10.617 12.6 10.691 12.456C10.8588 12.1266 11.1266 11.8578 11.456 11.69ZM10.5 15V17.25C10.5 17.962 10.5 18.452 10.532 18.83C10.562 19.201 10.617 19.4 10.691 19.544C10.859 19.874 11.126 20.142 11.456 20.309C11.6 20.383 11.799 20.439 12.169 20.469C12.398 20.487 12.666 20.495 13 20.498V15H10.5ZM14.5 20.5H17.5V15H14.5V20.5ZM19 20.498C19.334 20.495 19.602 20.488 19.83 20.468C20.201 20.438 20.4 20.383 20.544 20.309C20.8732 20.1415 21.141 19.874 21.309 19.545C21.383 19.4 21.439 19.201 21.469 18.831C21.499 18.451 21.5 17.962 21.5 17.25V15H19V20.498Z" fill="white"/>
<defs>
<linearGradient id="paint0_linear_629_37175" x1="0" y1="0" x2="32" y2="32" gradientUnits="userSpaceOnUse">
<stop stop-color="#8B46D0"/>
<stop offset="1" stop-color="#42156F"/>
</linearGradient>
</defs>
</svg>
