<svg xmlns="http://www.w3.org/2000/svg" width="16" height="16" viewBox="0 0 16 16" fill="none">
  <path fill-rule="evenodd" clip-rule="evenodd" d="M10.281 2H5.72C5.046 2 4.495 2 4.048 2.037C3.585 2.074 3.166 2.155 2.776 2.354C2.16463 2.66556 1.66756 3.16263 1.356 3.774C1.156 4.165 1.076 4.584 1.038 5.047C1 5.494 1 6.045 1 6.719V9.28C1 9.954 1 10.504 1.037 10.952C1.074 11.415 1.155 11.834 1.354 12.225C1.66556 12.8364 2.16263 13.3334 2.774 13.645C3.165 13.844 3.584 13.925 4.047 13.962C4.494 13.999 5.045 13.999 5.719 13.999H10.281C10.955 13.999 11.505 13.999 11.953 13.962C12.416 13.925 12.835 13.844 13.226 13.645C13.8374 13.3334 14.3344 12.8364 14.646 12.225C14.845 11.834 14.926 11.415 14.963 10.952C15 10.505 15 9.954 15 9.28V6.72C15 6.046 15 5.495 14.963 5.048C14.926 4.585 14.845 4.166 14.646 3.776C14.3344 3.16463 13.8374 2.66756 13.226 2.356C12.835 2.156 12.416 2.076 11.953 2.038C11.506 2 10.955 2 10.281 2ZM3.456 3.69C3.6 3.617 3.799 3.562 4.169 3.532C4.549 3.501 5.038 3.5 5.75 3.5H10.25C10.962 3.5 11.452 3.5 11.83 3.532C12.201 3.562 12.4 3.617 12.544 3.691C12.874 3.859 13.142 4.126 13.309 4.456C13.383 4.6 13.439 4.799 13.469 5.169C13.477 5.271 13.483 5.38 13.487 5.5H2.513C2.517 5.38 2.523 5.27 2.532 5.17C2.562 4.799 2.617 4.6 2.691 4.456C2.8588 4.1266 3.1266 3.8578 3.456 3.69ZM2.5 7V9.25C2.5 9.962 2.5 10.452 2.532 10.83C2.562 11.201 2.617 11.4 2.691 11.544C2.859 11.874 3.126 12.142 3.456 12.309C3.6 12.383 3.799 12.439 4.169 12.469C4.398 12.487 4.666 12.495 5 12.498V7H2.5ZM6.5 12.5H9.5V7H6.5V12.5ZM11 12.498C11.334 12.495 11.602 12.488 11.83 12.468C12.201 12.438 12.4 12.383 12.544 12.309C12.8732 12.1415 13.141 11.874 13.309 11.545C13.383 11.4 13.439 11.201 13.469 10.831C13.499 10.451 13.5 9.962 13.5 9.25V7H11V12.498Z" fill="white"/>
</svg>