<svg xmlns="http://www.w3.org/2000/svg" viewBox="0 0 24 24" fill="none">
<path fill-rule="evenodd" clip-rule="evenodd" d="M7.82787 2.24707H16.1721C17.1822 2.24706 18.0083 2.24705 18.6796 2.3019C19.3745 2.35867 20.0021 2.47977 20.5882 2.77841C21.5055 3.24579 22.2513 3.99157 22.7186 4.90885C23.0173 5.49496 23.1384 6.12256 23.1952 6.81744C23.25 7.48879 23.25 8.31486 23.25 9.32492L23.25 14.6756C23.2501 15.6856 23.2501 16.5117 23.1952 17.1831C23.1384 17.878 23.0173 18.5056 22.7187 19.0917C22.2513 20.009 21.5055 20.7547 20.5883 21.2221C20.0021 21.5208 19.3745 21.6419 18.6796 21.6987C18.0083 21.7535 17.1822 21.7535 16.1722 21.7535H7.82785C6.81779 21.7535 5.99174 21.7535 5.3204 21.6987C4.62551 21.6419 3.99791 21.5208 3.4118 21.2221C2.49451 20.7548 1.74873 20.009 1.28134 19.0917C0.982706 18.5056 0.861603 17.878 0.804828 17.1831C0.749977 16.5117 0.749987 15.6857 0.75 14.6756V9.32494C0.749987 8.31488 0.749977 7.48881 0.804828 6.81747C0.861603 6.12258 0.982706 5.49498 1.28134 4.90887C1.74873 3.99158 2.49451 3.2458 3.4118 2.77841C3.99791 2.47978 4.62551 2.35867 5.3204 2.3019C5.99174 2.24705 6.81781 2.24706 7.82787 2.24707ZM5.50362 4.54443C4.94787 4.58983 4.64933 4.67309 4.43328 4.78318C3.93935 5.03485 3.53778 5.43642 3.28611 5.93035C3.17602 6.1464 3.09276 6.44494 3.04736 7.00069C3.00088 7.56957 3 8.30341 3 9.37207V14.6285C3 15.6971 3.00088 16.431 3.04736 16.9999C3.09276 17.5556 3.17602 17.8541 3.28611 18.0702C3.53778 18.5641 3.93935 18.9657 4.43328 19.2174C4.64933 19.3275 4.94787 19.4107 5.50362 19.4561C6.0725 19.5026 6.80634 19.5035 7.87501 19.5035H16.125C17.1937 19.5035 17.9275 19.5026 18.4964 19.4561C19.0522 19.4107 19.3507 19.3275 19.5668 19.2174C20.0607 18.9657 20.4623 18.5641 20.7139 18.0702C20.824 17.8541 20.9073 17.5556 20.9527 16.9998C20.9992 16.431 21 15.6971 21 14.6285L21 9.37205C21 8.30339 20.9991 7.56956 20.9526 7.00068C20.9072 6.44493 20.824 6.1464 20.7139 5.93034C20.4622 5.43642 20.0606 5.03484 19.5667 4.78318C19.3507 4.67309 19.0521 4.58983 18.4964 4.54443C17.9275 4.49795 17.1937 4.49707 16.125 4.49707H7.875C6.80634 4.49707 6.0725 4.49795 5.50362 4.54443Z" fill="white"/>
<path d="M6.35709 7.12446H9.67456L11.9565 12.6855H12.0716L14.3535 7.12446H17.671V16.9426H15.0631V11.2665H14.9863L12.8003 16.8659H11.2278L9.04175 11.2282H8.96504V16.9426H6.35709V7.12446Z" fill="white"/>
</svg>