<svg viewBox="0 0 32 32" fill="none" xmlns="http://www.w3.org/2000/svg">
<rect width="32" height="32" rx="8" fill="url(#paint0_linear_629_37174)"/>
<path fill-rule="evenodd" clip-rule="evenodd" d="M13.2186 9.49805H18.7814C19.4548 9.49804 20.0055 9.49803 20.4531 9.5346C20.9163 9.57245 21.3347 9.65318 21.7255 9.85227C22.337 10.1639 22.8342 10.661 23.1458 11.2726C23.3449 11.6633 23.4256 12.0817 23.4634 12.545C23.5 12.9925 23.5 13.5432 23.5 14.2166L23.5 17.7837C23.5 18.4571 23.5 19.0078 23.4635 19.4554C23.4256 19.9186 23.3449 20.337 23.1458 20.7278C22.8342 21.3393 22.337 21.8365 21.7255 22.1481C21.3348 22.3472 20.9164 22.4279 20.4531 22.4658C20.0055 22.5023 19.4548 22.5023 18.7815 22.5023H13.2186C12.5452 22.5023 11.9945 22.5023 11.5469 22.4658C11.0837 22.4279 10.6653 22.3472 10.2745 22.1481C9.663 21.8365 9.16582 21.3393 8.85423 20.7278C8.65514 20.337 8.5744 19.9187 8.53655 19.4554C8.49998 19.0078 8.49999 18.4571 8.5 17.7837V14.2166C8.49999 13.5433 8.49998 12.9925 8.53655 12.545C8.5744 12.0817 8.65514 11.6633 8.85423 11.2726C9.16582 10.6611 9.663 10.1639 10.2745 9.85228C10.6653 9.65318 11.0837 9.57245 11.5469 9.5346C11.9945 9.49803 12.5452 9.49804 13.2186 9.49805ZM11.6691 11.0296C11.2986 11.0599 11.0996 11.1154 10.9555 11.1888C10.6262 11.3566 10.3585 11.6243 10.1907 11.9536C10.1173 12.0976 10.0618 12.2966 10.0316 12.6671C10.0006 13.0464 10 13.5356 10 14.248V17.7523C10 18.4648 10.0006 18.954 10.0316 19.3332C10.0618 19.7037 10.1173 19.9028 10.1907 20.0468C10.3585 20.3761 10.6262 20.6438 10.9555 20.8116C11.0996 20.885 11.2986 20.9405 11.6691 20.9708C12.0483 21.0017 12.5376 21.0023 13.25 21.0023H18.75C19.4625 21.0023 19.9517 21.0017 20.331 20.9708C20.7015 20.9405 20.9005 20.885 21.0445 20.8116C21.3738 20.6438 21.6415 20.3761 21.8093 20.0468C21.8827 19.9028 21.9382 19.7037 21.9685 19.3332C21.9994 18.954 22 18.4647 22 17.7523L22 14.248C22 13.5356 21.9994 13.0464 21.9684 12.6671C21.9382 12.2966 21.8827 12.0976 21.8093 11.9536C21.6415 11.6243 21.3738 11.3566 21.0445 11.1888C20.9004 11.1154 20.7014 11.0599 20.3309 11.0296C19.9517 10.9986 19.4624 10.998 18.75 10.998H13.25C12.5376 10.998 12.0483 10.9986 11.6691 11.0296Z" fill="white"/>
<path d="M12.2381 12.7496H14.4497L15.971 16.457H16.0477L17.569 12.7496H19.7807V19.2951H18.042V15.511H17.9909L16.5335 19.244H15.4852L14.0278 15.4854H13.9767V19.2951H12.2381V12.7496Z" fill="white"/>
<defs>
<linearGradient id="paint0_linear_629_37174" x1="0" y1="0" x2="32" y2="32" gradientUnits="userSpaceOnUse">
<stop stop-color="#5460CF"/>
<stop offset="1" stop-color="#0011B0"/>
</linearGradient>
</defs>
</svg>
