<svg width="1024" height="727" viewBox="0 0 1024 727" fill="none" xmlns="http://www.w3.org/2000/svg">
	<path
		d="M328.87 332.526C280.49 332.526 253.744 364.034 239.191 434.533L20.5 403.025C47.2464 172.231 136.925 60.3787 314.317 60.3787C445.688 60.3787 574.307 160.022 637.24 160.022C686.012 160.022 712.365 126.151 726.918 58.0156L945.609 89.5233C921.223 320.711 829.184 432.563 651.793 432.563C518.454 432.17 394.556 332.526 328.87 332.526Z"
		fill="url(#paint0_linear_1814_3217)" />
	<path
		d="M390.87 558.061C342.49 558.061 315.744 589.569 301.191 660.067L82.5 628.559C109.246 397.765 198.925 285.519 376.317 285.519C507.295 285.519 636.307 385.162 699.239 385.162C748.012 385.162 774.365 351.292 788.918 283.156L1007.61 314.664C983.223 545.852 891.184 657.704 713.793 657.704C580.454 657.704 456.556 558.061 390.87 558.061Z"
		fill="url(#paint1_linear_1814_3217)" />
	<defs>
		<linearGradient id="paint0_linear_1814_3217" x1="20.5503" y1="246.309" x2="945.797" y2="246.309"
			gradientUnits="userSpaceOnUse">
			<stop offset="0.1418" stop-color="#1F4D22" />
			<stop offset="0.8656" stop-color="#418D31" />
		</linearGradient>
		<linearGradient id="paint1_linear_1814_3217" x1="82.5673" y1="471.774" x2="1007.81" y2="471.774"
			gradientUnits="userSpaceOnUse">
			<stop offset="0.2223" stop-color="#418D31" />
			<stop offset="0.7733" stop-color="#58C142" />
		</linearGradient>
	</defs>
</svg>