<?xml version="1.0" encoding="UTF-8" standalone="no"?>
<!-- Generator: Adobe Illustrator 27.8.1, SVG Export Plug-In . SVG Version: 6.00 Build 0)  -->

<svg
   version="1.1"
   id="Layer_1"
   x="0px"
   y="0px"
   viewBox="0 0 600 500"
   xml:space="preserve"
   width="600"
   height="500"
   xmlns="http://www.w3.org/2000/svg"
   xmlns:svg="http://www.w3.org/2000/svg"><defs
   id="defs2">
	
	
</defs>
<style
   type="text/css"
   id="style1">
	.st0{fill:url(#SVGID_1_);}
	.st1{fill:url(#SVGID_00000123405442604648655120000000636425700907447225_);}
	.st2{fill:#FFFFFF;}
	.st3{fill:#58C142;}
	.st4{fill:url(#SVGID_00000100361222533905006500000012948355425597525920_);}
	.st5{fill:url(#SVGID_00000039098984540155201650000005728924474174226367_);}
	.st6{fill:url(#SVGID_00000065066116668922763670000009055193333651929737_);}
	.st7{fill:url(#SVGID_00000046310373342220590360000000833566212213317053_);}
	.st8{fill:url(#SVGID_00000067914870925445215340000010520730682335284873_);}
	.st9{fill:url(#SVGID_00000139972009352615321800000011748188400644384138_);}
	.st10{fill:url(#SVGID_00000137813723102203423940000002281677718566419372_);}
	.st11{fill:url(#SVGID_00000117658585713214366330000001759073570098750902_);}
	.st12{fill:url(#SVGID_00000075146307645666362690000001517567647835044244_);}
	.st13{fill:url(#SVGID_00000169553343881037582000000012883033354483876241_);}
</style>
<path
   id="path1"
   style="opacity:0.5"
   d="M 422.51172 66.083984 L 421.53516 70.652344 C 417.33083 90.353994 411.35644 104.70464 403.55469 113.80273 C 395.75293 122.90082 386.35602 127.19727 373.125 127.19727 C 357.05867 127.19727 328.16184 112.92204 294.49219 98.072266 C 260.82253 83.222496 221.69145 68.097656 181.52539 68.097656 C 127.92402 68.097656 86.532969 85.316144 57.154297 120.12109 C 27.775625 154.92604 10.372512 206.67398 2.359375 275.61719 L 1.7988281 280.44531 L 56.220703 288.37109 L 57.820312 285.08594 C 65.25609 269.82303 73.831666 256.48454 83.539062 244.92969 C 115.47278 207.26926 160.3376 188.19727 218.22461 188.19727 C 267.79258 188.19727 315.46055 209.65071 354.36328 227.25195 C 364.9643 232.05241 375.79071 236.95346 385.39453 240.70312 C 394.99835 244.45279 403.07423 247.19727 409.82617 247.19727 C 413.82609 247.19727 421.48246 246.93422 428.1582 240.54688 C 434.83282 234.1606 440.60643 222.69513 445.21289 201.15234 L 445.21484 201.14062 L 448.83008 184.4082 L 465.81445 186.8457 L 536.40039 197.00391 L 537.86523 193.35938 C 549.29245 164.89336 556.96239 130.75308 561.09766 90.8125 L 561.59375 86.029297 L 422.51172 66.083984 z M 430.16992 77.285156 L 550.5293 94.546875 C 546.54141 130.02571 539.65046 160.47664 529.87305 185.96094 L 467.23633 176.94727 L 441.02148 173.18555 L 435.4375 199.04688 L 435.4375 199.05273 C 431.04434 219.60293 425.5684 229.18482 421.24414 233.32227 C 416.91988 237.45972 413.82625 237.19727 409.82617 237.19727 C 406.27811 237.19727 398.25262 234.99096 389.03125 231.39062 C 379.80988 227.79029 369.08726 222.94212 358.48828 218.14258 L 358.48633 218.14258 C 319.58934 200.54395 270.65598 178.19727 218.22461 178.19727 C 158.11161 178.19727 109.77644 198.52332 75.910156 238.46289 L 75.904297 238.47266 L 75.896484 238.48047 C 66.334868 249.85786 57.917521 262.87758 50.539062 277.43945 L 12.957031 271.96484 C 21.093315 206.62731 37.997403 158.32164 64.796875 126.57227 C 92.267813 94.027406 130.02676 78.097656 181.52539 78.097656 C 219.15933 78.097656 257.12688 92.522626 290.45703 107.22266 C 323.78718 121.92269 351.79133 137.19727 373.125 137.19727 C 388.69398 137.19727 401.64785 131.39136 411.14648 120.31445 C 419.90416 110.10161 425.83921 95.599976 430.16992 77.285156 z " /><path
   id="path2"
   d="M 459.22266 199.48242 L 458.23828 204.04102 C 453.98366 223.74923 448.00562 238.11003 440.21484 247.20898 C 432.42406 256.30792 423.05719 260.59766 409.82617 260.59766 C 393.75984 260.59766 364.8635 246.32243 331.19336 231.47266 C 297.52322 216.62289 258.39067 201.49609 218.22461 201.49609 C 164.62324 201.49609 123.21048 218.7172 93.806641 253.52148 C 64.402803 288.32575 46.972258 340.07318 38.958984 409.01758 L 38.398438 413.85156 L 177.46289 433.91602 L 178.41992 429.31641 C 182.67718 408.86198 188.65729 394.54154 196.40625 385.66016 C 204.15521 376.77878 213.50835 372.79687 226.82617 372.79688 C 243.74405 372.79688 272.14189 387.06214 305.43945 401.91406 C 338.73701 416.76597 377.53367 431.89648 418.42578 431.89648 C 472.02715 431.89648 513.79622 414.69411 543.39648 379.88672 C 572.99675 345.07936 590.43695 293.29532 597.69727 224.32227 L 598.20117 219.53516 L 459.22266 199.48242 z M 466.85938 210.68945 L 587.14062 228.04492 C 579.69967 293.3732 562.78246 341.65675 535.7793 373.41016 C 508.10515 405.95259 469.92441 421.89648 418.42578 421.89648 C 380.01789 421.89648 342.46592 407.48109 309.51367 392.7832 C 276.56143 378.08531 248.80829 362.79687 226.82617 362.79688 C 211.344 362.79688 198.39753 368.16536 188.87109 379.08398 C 180.07127 389.1698 174.12897 403.7467 169.75977 422.70312 L 49.556641 405.35742 C 57.694304 340.025 74.622873 291.72143 101.44531 259.97266 C 128.94089 227.42713 166.72598 211.49609 218.22461 211.49609 C 255.85855 211.49609 293.82756 225.92105 327.1582 240.62109 C 360.48884 255.32113 388.4925 270.59766 409.82617 270.59766 C 425.39515 270.59766 438.32691 264.787 447.81055 253.71094 C 456.55539 243.49774 462.49009 229.00119 466.85938 210.68945 z " />
</svg>
