<?xml version="1.0" encoding="UTF-8" standalone="no"?>
<!-- Generator: Adobe Illustrator 27.8.1, SVG Export Plug-In . SVG Version: 6.00 Build 0)  -->

<svg
   version="1.1"
   id="Layer_1"
   x="0px"
   y="0px"
   viewBox="0 0 600 500"
   xml:space="preserve"
   width="600"
   height="500"
   xmlns="http://www.w3.org/2000/svg"
   xmlns:svg="http://www.w3.org/2000/svg"><defs
   id="defs2">
	
	
</defs>
<style
   type="text/css"
   id="style1">
	.st0{fill:url(#SVGID_1_);}
	.st1{fill:url(#SVGID_00000123405442604648655120000000636425700907447225_);}
	.st2{fill:#FFFFFF;}
	.st3{fill:#58C142;}
	.st4{fill:url(#SVGID_00000100361222533905006500000012948355425597525920_);}
	.st5{fill:url(#SVGID_00000039098984540155201650000005728924474174226367_);}
	.st6{fill:url(#SVGID_00000065066116668922763670000009055193333651929737_);}
	.st7{fill:url(#SVGID_00000046310373342220590360000000833566212213317053_);}
	.st8{fill:url(#SVGID_00000067914870925445215340000010520730682335284873_);}
	.st9{fill:url(#SVGID_00000139972009352615321800000011748188400644384138_);}
	.st10{fill:url(#SVGID_00000137813723102203423940000002281677718566419372_);}
	.st11{fill:url(#SVGID_00000117658585713214366330000001759073570098750902_);}
	.st12{fill:url(#SVGID_00000075146307645666362690000001517567647835044244_);}
	.st13{fill:url(#SVGID_00000169553343881037582000000012883033354483876241_);}
</style>
<path
   d="m 218.2,183.2 c 51,0 99.3,21.9 138.2,39.5 21.2,9.6 43.1,19.5 53.4,19.5 8,0 21.5,0 30.5,-42.1 l 4.6,-21.3 21.6,3.1 66.7,9.6 C 544.4,163.6 552,129.9 556.1,90.3 L 426.4,71.7 C 417.8,112 401.9,132.2 373.1,132.2 335.7,132.2 259.3,73.1 181.5,73.1 76.4,73.1 23.2,139.4 7.3,276.2 l 46,6.7 c 7.6,-15.6 16.4,-29.3 26.4,-41.2 32.9,-38.8 79.5,-58.5 138.5,-58.5 z"
   id="path1" /><path
   d="m 409.8,265.6 c -37.4,0 -113.8,-59.1 -191.6,-59.1 -105.1,0 -158.4,66.3 -174.3,203.1 l 129.6,18.7 c 8.7,-41.8 24.5,-60.5 53.3,-60.5 38.9,0 112.3,59.1 191.6,59.1 105.1,0 159.9,-66.3 174.3,-203.1 L 463.1,205.1 c -8.7,40.3 -24.5,60.5 -53.3,60.5 z"
   id="path2" />
</svg>
