<svg xmlns="http://www.w3.org/2000/svg" viewBox="0 0 32 32" width="32" height="32">
  <rect width="32" height="32" rx="8" fill="url(#paint0_linear_629_37176)"/>
  <style>svg{fill:#ffffff}</style>
  <g transform="scale(0.03) translate(220,300)">
    <path d="M233.4 112c-32.9 0-64.4 13.1-87.7 36.3c-28.5 28.5-74.2 29.8-104.3 3.1l-1.5-1.3c-2.7-2.4-5.8-4.1-9-5c-1.3-.4-2.7-.7-4.1-.9c-1.1-.1-2.2-.2-3.3-.2c-3.6 .1-7 .9-10.1 2.4c-2.2 1-4.2 2.4-6 4.2C2.9 154.9 0 161.1 0 168v34C0 311.4 88.6 400 198 400c42.8 0 84.5-13.9 118.8-39.6L320 358l3.2 2.4c34.3 25.7 76 39.6 118.8 39.6c109.4 0 198-88.6 198-198V168c0-6.9-2.9-13.1-7.5-17.4c-4.2-4-9.8-6.5-16.1-6.6c-.4 0-.9 0-1.3 0c-2.4 .1-4.8 .5-7.1 1.3c-2.9 1-5.6 2.6-8 4.7l-1.5 1.3c-30.1 26.7-75.8 25.4-104.3-3.1C471 125.1 439.5 112 406.6 112h-1.2c-29.7 0-58.5 10.4-81.3 29.5l-4 3.3-4-3.3c-22.8-19-51.6-29.5-81.3-29.5h-1.2zm358.3 98.7C587.3 289.5 521.9 352 442 352c-32.5 0-64-10.5-90-30l-17.6-13.2c-8.5-6.4-20.3-6.4-28.8 0L288 322c-26 19.5-57.5 30-90 30c-79.9 0-145.3-62.5-149.8-141.3c44.3 16.7 96 7 131.4-28.4C193.9 168 213.3 160 233.4 160h1.2c18.5 0 36.4 6.5 50.6 18.3l19.3 16.1c8.9 7.4 21.8 7.4 30.7 0l19.3-16.1c14.2-11.8 32.1-18.3 50.6-18.3h1.2c20.2 0 39.5 8 53.8 22.3c35.4 35.4 87.1 45.1 131.4 28.4z"/>
  </g>
  <linearGradient id="paint0_linear_629_37176" x1="0" y1="0" x2="32" y2="32" gradientUnits="userSpaceOnUse">
    <stop stop-color="#ec9d68"/>
    <stop offset="1" stop-color="#ff3002"/>
  </linearGradient>
</svg>
