<svg xmlns="http://www.w3.org/2000/svg" width="16" height="16" viewBox="0 0 16 16" fill="none">
  <path d="M6.22494 0.503207L9.0903 0.507061C9.10619 0.507082 9.12218 0.507076 9.13827 0.507069C9.33303 0.506991 9.54144 0.506908 9.74542 0.556028C9.92346 0.598901 10.0937 0.669452 10.2498 0.765107C10.4287 0.8747 10.576 1.02221 10.7136 1.16005C10.7249 1.17143 10.7362 1.18275 10.7475 1.19397L13.8103 4.25175C13.8216 4.26302 13.833 4.27435 13.8445 4.28574C13.9831 4.42366 14.1315 4.57125 14.2416 4.75077C14.3378 4.90746 14.4086 5.07831 14.4516 5.25705C14.5008 5.46184 14.5004 5.6711 14.5001 5.86666C14.5 5.88281 14.5 5.89887 14.5 5.91483L14.5 10.7835C14.5 11.4569 14.5001 12.0076 14.4635 12.4552C14.4256 12.9185 14.3449 13.3369 14.1458 13.7276C13.8342 14.3391 13.337 14.8363 12.7255 15.1479C12.3348 15.347 11.9164 15.4277 11.4531 15.4656C11.0055 15.5022 10.4548 15.5021 9.78147 15.5021H6.21857C5.5452 15.5021 4.99449 15.5022 4.54693 15.4656C4.08367 15.4277 3.66527 15.347 3.27453 15.1479C2.663 14.8363 2.16582 14.3391 1.85423 13.7276C1.65514 13.3369 1.5744 12.9185 1.53655 12.4552C1.49998 12.0076 1.49999 11.4569 1.5 10.7836V5.2218C1.49999 4.5476 1.49998 3.99624 1.53661 3.54818C1.57452 3.08444 1.65539 2.66562 1.85482 2.27459C2.16693 1.66266 2.66491 1.16535 3.27726 0.854068C3.66856 0.655155 4.08748 0.574854 4.55128 0.537568C4.99938 0.501543 5.55074 0.502292 6.22494 0.503207ZM4.67148 2.03274C4.30048 2.06257 4.1012 2.11791 3.95699 2.19122C3.62726 2.35883 3.35912 2.62661 3.19106 2.95611C3.11756 3.10023 3.06195 3.29944 3.03162 3.6704C3.00058 4.0501 3 4.53995 3 5.25325V10.7521C3 11.4646 3.00058 11.9538 3.03157 12.3331C3.06184 12.7036 3.11735 12.9026 3.19074 13.0466C3.35852 13.3759 3.62623 13.6436 3.95552 13.8114C4.09956 13.8848 4.29858 13.9403 4.66908 13.9706C5.04834 14.0016 5.53756 14.0021 6.25 14.0021H9.75003C10.4625 14.0021 10.9517 14.0016 11.331 13.9706C11.7015 13.9403 11.9005 13.8848 12.0445 13.8114C12.3738 13.6436 12.6415 13.3759 12.8093 13.0466C12.8827 12.9026 12.9382 12.7036 12.9685 12.3331C12.9995 11.9538 13 11.4646 13 10.7521L13 7.00232L11.6001 7.00232C11.1215 7.00233 10.7176 7.00234 10.3867 6.9753C10.0402 6.94699 9.7082 6.88533 9.39233 6.72438C8.91251 6.47991 8.52241 6.08981 8.27793 5.60999C8.11699 5.29412 8.05533 4.96216 8.02701 4.61563C7.99998 4.28472 7.99999 3.88079 8 3.40222L8 2.0056L6.25437 2.00325C5.54107 2.00229 5.05123 2.00221 4.67148 2.03274ZM9.5 2.07243V3.37232C9.5 3.88874 9.50058 4.23095 9.52203 4.49348C9.54277 4.74725 9.5792 4.85984 9.61444 4.92901C9.71511 5.12658 9.87574 5.28721 10.0733 5.38787C10.1425 5.42312 10.2551 5.45955 10.5088 5.48029C10.7714 5.50173 11.1136 5.50232 11.63 5.50232H12.9355C12.9336 5.50025 12.9316 5.49806 12.9295 5.49576C12.8927 5.45544 12.8418 5.40441 12.7506 5.31329L9.68768 2.25552C9.59679 2.16477 9.54589 2.11421 9.50568 2.07757C9.5037 2.07577 9.50181 2.07406 9.5 2.07243Z" fill="white"/>
</svg>