 <svg xmlns="http://www.w3.org/2000/svg" width="48" height="34" viewBox="0 0 48 34" fill="none">
	<path
		d="M15.4158 15.5474C13.148 15.5474 11.8942 17.0243 11.2121 20.3289L0.960938 18.852C2.21467 8.03354 6.41837 2.79046 14.7336 2.79046C20.8916 2.79046 26.9206 7.46123 29.8706 7.46123C32.1568 7.46123 33.3921 5.87353 34.0743 2.67969L44.3254 4.15661C43.1823 14.9935 38.868 20.2366 30.5528 20.2366C24.3025 20.2182 18.4948 15.5474 15.4158 15.5474Z"
		fill="url(#paint0_linear_1073_4777)"
	/>
	<path
		d="M18.322 26.1166C16.0542 26.1166 14.8005 27.5935 14.1183 30.8982L3.86719 29.4212C5.12092 18.6028 9.32462 13.3412 17.6398 13.3412C23.7795 13.3412 29.8269 18.012 32.7768 18.012C35.0631 18.012 36.2984 16.4243 36.9806 13.2305L47.2317 14.7074C46.0886 25.5443 41.7742 30.7874 33.459 30.7874C27.2088 30.7874 21.401 26.1166 18.322 26.1166Z"
		fill="url(#paint1_linear_1073_4777)"
	/>
	<defs>
		<linearGradient
			id="paint0_linear_1073_4777"
			x1="0.963297"
			y1="11.5059"
			x2="44.3342"
			y2="11.5059"
			gradientUnits="userSpaceOnUse"
		>
			<stop offset="0.1418" stop-color="#1F4D22" />
			<stop offset="0.8656" stop-color="#418D31" />
		</linearGradient>
		<linearGradient
			id="paint1_linear_1073_4777"
			x1="3.87034"
			y1="22.0719"
			x2="47.2413"
			y2="22.0719"
			gradientUnits="userSpaceOnUse"
		>
			<stop offset="0.2223" stop-color="#418D31" />
			<stop offset="0.7733" stop-color="#58C142" />
		</linearGradient>
	</defs>
</svg>