<svg xmlns="http://www.w3.org/2000/svg" width="16" height="16" viewBox="0 0 16 16" fill="none">
  <g opacity="0.8">
    <path d="M12.0832 6.84115C13.694 6.84115 14.9998 5.53531 14.9998 3.92448C14.9998 2.31365 13.694 1.00781 12.0832 1.00781C10.4723 1.00781 9.1665 2.31365 9.1665 3.92448C9.1665 5.53531 10.4723 6.84115 12.0832 6.84115Z" fill="white"/>
    <path d="M3.91667 6.84115C5.5275 6.84115 6.83333 5.53531 6.83333 3.92448C6.83333 2.31365 5.5275 1.00781 3.91667 1.00781C2.30584 1.00781 1 2.31365 1 3.92448C1 5.53531 2.30584 6.84115 3.91667 6.84115Z" fill="white"/>
    <path d="M12.0832 15.0052C13.694 15.0052 14.9998 13.6994 14.9998 12.0885C14.9998 10.4777 13.694 9.17188 12.0832 9.17188C10.4723 9.17188 9.1665 10.4777 9.1665 12.0885C9.1665 13.6994 10.4723 15.0052 12.0832 15.0052Z" fill="white"/>
    <path d="M3.91667 15.0052C5.5275 15.0052 6.83333 13.6994 6.83333 12.0885C6.83333 10.4777 5.5275 9.17188 3.91667 9.17188C2.30584 9.17188 1 10.4777 1 12.0885C1 13.6994 2.30584 15.0052 3.91667 15.0052Z" fill="white"/>
  </g>
</svg>