<svg viewBox="0 0 12 12" fill="none" xmlns="http://www.w3.org/2000/svg">
<g id="actions">
<g id="Vector">
<path d="M5 2.54797C5 1.99569 5.44772 1.54797 6 1.54797C6.55228 1.54797 7 1.99569 7 2.54797C7 3.10026 6.55228 3.54797 6 3.54797C5.44772 3.54797 5 3.10026 5 2.54797Z" />
<path d="M5 6.00001C5 5.44772 5.44772 5.00001 6 5.00001C6.55228 5.00001 7 5.44772 7 6.00001C7 6.55229 6.55228 7.00001 6 7.00001C5.44772 7.00001 5 6.55229 5 6.00001Z" />
<path d="M5 9.45204C5 8.89975 5.44772 8.45204 6 8.45204C6.55228 8.45204 7 8.89975 7 9.45204C7 10.0043 6.55228 10.452 6 10.452C5.44772 10.452 5 10.0043 5 9.45204Z" />
</g>
</g>
</svg>
