<svg viewBox="0 0 16 16" fill="rgba(88, 193, 66, 1)" xmlns="http://www.w3.org/2000/svg">
<g id="sparkle_16">
<path id="Vector" d="M9.12147 3.54414C8.60747 1.94014 8.35147 1.13814 8.20747 1.05914C8.14865 1.02056 8.07983 1 8.00947 1C7.93912 1 7.8703 1.02056 7.81147 1.05914C7.66847 1.13914 7.41247 1.94114 6.90147 3.54714C6.59547 4.50914 6.22347 5.34314 5.78647 5.78014C5.34847 6.21814 4.51447 6.58914 3.55147 6.89514C1.94347 7.40714 1.13847 7.66314 1.05947 7.80514C1.02068 7.86408 1 7.93309 1 8.00364C1 8.0742 1.02068 8.14321 1.05947 8.20214C1.13847 8.34514 1.94147 8.60214 3.54947 9.11714C4.51247 9.42514 5.34847 9.79814 5.78647 10.2361C6.22447 10.6741 6.59647 11.5061 6.90347 12.4661C7.41347 14.0621 7.66947 14.8611 7.81147 14.9391C7.95447 15.0191 8.06447 15.0191 8.20747 14.9391C8.35047 14.8611 8.60747 14.0631 9.12047 12.4681C9.42947 11.5081 9.80247 10.6751 10.2415 10.2361C10.6815 9.79614 11.5155 9.42114 12.4765 9.10914C14.0685 8.59214 14.8645 8.33314 14.9425 8.19014C14.9809 8.13122 15.0013 8.06235 15.0011 7.99199C15.0009 7.92164 14.9802 7.85287 14.9415 7.79414C14.8615 7.65214 14.0635 7.39814 12.4675 6.89214C11.5105 6.58814 10.6795 6.21814 10.2415 5.78014C9.80347 5.34214 9.43147 4.50714 9.12147 3.54414Z" fill="#58C142"/>
</g>
</svg>
