<svg viewBox="0 0 32 32" fill="none" xmlns="http://www.w3.org/2000/svg">
<rect width="32" height="32" rx="8" fill="url(#paint0_linear_629_37176)"/>
<path d="M12.7568 13.803C13.0621 13.5231 13.0828 13.0487 12.8028 12.7434C12.5229 12.438 12.0485 12.4174 11.7432 12.6973L8.74319 15.4475C8.58822 15.5896 8.49999 15.7901 8.5 16.0004C8.50001 16.2106 8.58825 16.4112 8.74322 16.5532L11.7432 19.3031C12.0486 19.5829 12.523 19.5623 12.8029 19.2569C13.0828 18.9516 13.0621 18.4772 12.7568 18.1973L10.3599 16.0003L12.7568 13.803Z" fill="white"/>
<path d="M17.7301 11.9199C17.8249 11.5167 17.5749 11.113 17.1717 11.0181C16.7685 10.9233 16.3647 11.1733 16.2699 11.5765L14.2699 20.0808C14.1751 20.484 14.4251 20.8877 14.8283 20.9826C15.2315 21.0774 15.6353 20.8274 15.7301 20.4242L17.7301 11.9199Z" fill="white"/>
<path d="M20.2568 12.6973C19.9515 12.4174 19.4771 12.438 19.1972 12.7434C18.9172 13.0487 18.9379 13.5231 19.2432 13.803L21.6401 16.0003L19.2432 18.1973C18.9379 18.4772 18.9172 18.9516 19.1971 19.2569C19.477 19.5623 19.9514 19.5829 20.2568 19.3031L23.2568 16.5532C23.4118 16.4112 23.5 16.2106 23.5 16.0004C23.5 15.7901 23.4118 15.5896 23.2568 15.4475L20.2568 12.6973Z" fill="white"/>
<defs>
<linearGradient id="paint0_linear_629_37176" x1="0" y1="0" x2="32" y2="32" gradientUnits="userSpaceOnUse">
<stop stop-color="#68D4EC"/>
<stop offset="1" stop-color="#005B70"/>
</linearGradient>
</defs>
</svg>
